<?xml version="1.0" encoding="iso-8859-1"?>
<!-- Generator: Adobe Illustrator 19.0.0, SVG Export Plug-In . SVG Version: 6.00 Build 0)  -->
<svg version="1.1" id="Capa_1" xmlns="http://www.w3.org/2000/svg" xmlns:xlink="http://www.w3.org/1999/xlink" x="0px" y="0px"
	 viewBox="0 0 511.874 511.874" style="enable-background:new 0 0 511.874 511.874;" xml:space="preserve">
<path style="fill:#D7E9FF;" d="M255.937,136.685c31.992,39.271,83.979,31.273,83.979,31.273
	c0,111.973-83.979,143.965-83.979,143.965s-83.979-31.992-83.979-143.965C171.958,167.958,223.945,175.957,255.937,136.685z"/>
<path style="fill:#5C9EFF;" d="M431.894,184.353c15.434,0,27.992-12.552,27.992-27.993c0-15.512-12.559-27.993-27.992-27.993
	S403.9,140.848,403.9,156.36C403.9,171.801,416.46,184.353,431.894,184.353z M427.894,271.613c17.676,0,31.992-14.395,31.992-31.992
	c0-17.675-14.316-32.07-31.992-32.07c-17.674,0-31.992,14.396-31.992,32.07C395.902,257.218,410.22,271.613,427.894,271.613z
	 M27.993,407.9h219.946H483.88v-15.996H263.935H27.993V407.9z M75.981,184.673c15.438,0,27.993-12.56,27.993-27.993
	s-12.555-27.993-27.993-27.993s-27.993,12.56-27.993,27.993S60.544,184.673,75.981,184.673z M96.535,247.939
	c0-2.796-0.398-5.522-1.117-7.998c-1.363-4.476-3.679-8.318-6.799-11.114c0,0,2.96-20.878-12.079-20.878
	c-14.954,0-11.997,20.792-11.997,20.792c-4.878,4.405-7.998,11.356-7.998,19.198c0,13.278,8.958,23.994,19.995,23.994
	c8.72,0,16.078-6.639,18.878-15.996C96.137,253.461,96.535,250.735,96.535,247.939z M3.999,431.894V95.976h503.875v335.918H3.999z
	 M339.916,167.958c0,0-51.986,7.998-83.979-31.273c-31.992,39.271-83.979,31.273-83.979,31.273
	c0,111.973,83.979,143.965,83.979,143.965S339.916,279.931,339.916,167.958z M331.917,351.914c0-4.397-3.6-7.998-7.998-7.998
	H195.952c-4.397,0-7.998,3.601-7.998,7.998s3.601,7.998,7.998,7.998h127.967C328.318,359.912,331.917,356.311,331.917,351.914z"/>
<g>
	<path style="fill:#D7E9FF;" d="M431.894,128.367c15.434,0,27.992,12.481,27.992,27.993c0,15.441-12.559,27.993-27.992,27.993
		S403.9,171.801,403.9,156.36C403.9,140.848,416.46,128.367,431.894,128.367z"/>
	<path style="fill:#D7E9FF;" d="M75.981,128.687c15.438,0,27.993,12.56,27.993,27.993s-12.556,27.993-27.993,27.993
		s-27.993-12.56-27.993-27.993S60.544,128.687,75.981,128.687z"/>
</g>
<path style="fill:#FFFFFF;" d="M55.986,156.68c0-14.067,10.462-25.627,23.994-27.587c-1.316-0.195-2.628-0.406-3.999-0.406
	c-15.438,0-27.993,12.56-27.993,27.993s12.556,27.993,27.993,27.993c1.371,0,2.683-0.211,3.999-0.406
	C66.448,182.307,55.986,170.747,55.986,156.68z"/>
<path style="fill:#94C1FF;" d="M94.258,156.68c0,14.066-10.462,25.627-23.994,27.587c1.316,0.195,2.629,0.406,3.999,0.406
	c15.438,0,27.993-12.56,27.993-27.993s-12.555-27.993-27.993-27.993c-1.37,0-2.683,0.211-3.999,0.406
	C83.796,131.053,94.258,142.613,94.258,156.68z"/>
<path style="fill:#FFFFFF;" d="M411.898,156.68c0-14.067,10.467-25.627,23.994-27.587c-1.312-0.195-2.623-0.406-3.998-0.406
	c-15.434,0-27.994,12.56-27.994,27.993s12.561,27.993,27.994,27.993c1.375,0,2.686-0.211,3.998-0.406
	C422.365,182.307,411.898,170.747,411.898,156.68z"/>
<g>
	<path style="fill:#94C1FF;" d="M451.888,156.68c0,14.066-10.465,25.627-23.994,27.587c1.312,0.195,2.625,0.406,4,0.406
		c15.434,0,27.992-12.56,27.992-27.993s-12.559-27.993-27.992-27.993c-1.375,0-2.688,0.211-4,0.406
		C441.423,131.053,451.888,142.613,451.888,156.68z"/>
	<path style="fill:#94C1FF;" d="M76.54,207.949c15.039,0,12.079,20.878,12.079,20.878c-3.359-3.038-7.518-4.882-12.079-4.882
		c-4.479,0-8.635,1.844-11.997,4.796C64.543,228.741,61.586,207.949,76.54,207.949z"/>
	<path style="fill:#94C1FF;" d="M95.418,239.941c0.719,2.476,1.117,5.202,1.117,7.998s-0.398,5.522-1.117,7.998
		c-2.8,9.357-10.158,15.996-18.878,15.996c-11.037,0-19.995-10.716-19.995-23.994c0-7.842,3.12-14.793,7.998-19.198
		c3.362-2.952,7.518-4.796,11.997-4.796c4.561,0,8.72,1.844,12.079,4.882C91.739,231.623,94.055,235.465,95.418,239.941z"/>
</g>
<path style="fill:#D7E9FF;" d="M64.543,247.939c0-7.842,3.12-14.793,7.998-19.198c2.339-2.055,5.073-3.515,8.018-4.249
	c-1.301-0.328-2.632-0.547-4.019-0.547c-4.479,0-8.635,1.844-11.997,4.796c-4.878,4.405-7.998,11.356-7.998,19.198
	c0,13.278,8.958,23.994,19.995,23.994c1.343,0,2.64-0.211,3.909-0.508C71.373,269.161,64.543,259.53,64.543,247.939z"/>
<path style="fill:#5C9EFF;" d="M88.537,247.939c0,7.842-3.121,14.793-7.998,19.198c-2.34,2.055-5.073,3.515-8.018,4.249
	c1.3,0.328,2.632,0.547,4.019,0.547c4.479,0,8.634-1.844,11.997-4.796c4.877-4.405,7.998-11.356,7.998-19.198
	c0-13.278-8.959-23.994-19.995-23.994c-1.344,0-2.64,0.211-3.909,0.508C81.707,226.717,88.537,236.348,88.537,247.939z"/>
<g>
	<path style="fill:#FFFFFF;" d="M187.97,168.544c0-0.016-0.004-0.031-0.004-0.047c-0.281,0.008-0.527,0.016-0.805,0.023
		C187.419,168.529,187.7,168.537,187.97,168.544z"/>
	<path style="fill:#FFFFFF;" d="M179.972,168.544c-4.968-0.148-8.014-0.586-8.014-0.586c0,111.973,83.979,143.965,83.979,143.965
		s1.512-0.594,3.99-1.789C243.296,302.121,180.229,265.341,179.972,168.544z"/>
</g>
<g>
	<path style="fill:#D7E9FF;" d="M323.919,343.916c4.398,0,7.998,3.601,7.998,7.998s-3.6,7.998-7.998,7.998H195.952
		c-4.397,0-7.998-3.601-7.998-7.998s3.601-7.998,7.998-7.998H323.919z"/>
	<polygon style="fill:#D7E9FF;" points="263.935,391.904 247.939,407.9 27.993,407.9 27.993,391.904 	"/>
</g>
<g>
	<polygon style="fill:#94C1FF;" points="483.88,391.904 483.88,407.9 247.939,407.9 263.935,391.904 	"/>
	<path style="fill:#94C1FF;" d="M427.894,207.55c17.676,0,31.992,14.396,31.992,32.07c0,17.598-14.316,31.992-31.992,31.992
		c-17.674,0-31.992-14.395-31.992-31.992C395.902,221.946,410.22,207.55,427.894,207.55z"/>
</g>
<path style="fill:#D7E9FF;" d="M507.875,95.976H3.999v-7.998c0-4.397,3.601-7.998,7.998-7.998h487.879
	c4.398,0,7.998,3.601,7.998,7.998v7.998H507.875z"/>
<g>
	<path style="fill:#94C1FF;" d="M331.902,168.544c-0.258,96.797-63.328,133.576-79.956,141.59c2.48,1.195,3.991,1.789,3.991,1.789
		s83.979-31.992,83.979-143.965C339.916,167.958,336.871,168.396,331.902,168.544z"/>
	<path style="fill:#94C1FF;" d="M324.716,168.521c-0.281-0.008-0.531-0.016-0.812-0.023c0,0.016,0,0.031,0,0.047
		C324.169,168.537,324.451,168.529,324.716,168.521z"/>
</g>
<path style="fill:#FFFFFF;" d="M19.995,79.98h-7.998c-4.397,0-7.998,3.601-7.998,7.998v7.998h7.998v-7.998
	C11.997,83.581,15.598,79.98,19.995,79.98z"/>
<path style="fill:#94C1FF;" d="M491.878,79.98h7.998c4.398,0,7.998,3.601,7.998,7.998v7.998h-7.998v-7.998
	C499.876,83.581,496.277,79.98,491.878,79.98z"/>
<g>
	<path style="fill:#116FFF;" d="M76.22,175.957c-2.207,0-4.038-1.788-4.038-3.999c0-2.21,1.75-3.999,3.96-3.999h0.078
		c2.21,0,3.999,1.789,3.999,3.999S78.43,175.957,76.22,175.957z"/>
	<path style="fill:#116FFF;" d="M20.233,91.977c-2.207,0-4.038-1.788-4.038-3.999c0-2.21,1.75-3.999,3.96-3.999h0.078
		c2.21,0,3.999,1.789,3.999,3.999C24.232,90.189,22.444,91.977,20.233,91.977z"/>
	<path style="fill:#116FFF;" d="M36.229,91.977c-2.207,0-4.038-1.788-4.038-3.999c0-2.21,1.75-3.999,3.96-3.999h0.078
		c2.21,0,3.999,1.789,3.999,3.999C40.229,90.189,38.439,91.977,36.229,91.977z"/>
	<path style="fill:#116FFF;" d="M52.226,91.977c-2.207,0-4.038-1.788-4.038-3.999c0-2.21,1.75-3.999,3.96-3.999h0.078
		c2.21,0,3.999,1.789,3.999,3.999C56.225,90.189,54.436,91.977,52.226,91.977z"/>
	<path style="fill:#116FFF;" d="M507.875,99.975c-2.209,0-3.998-1.788-3.998-3.999v-7.998c0-2.202-1.797-3.999-4-3.999H11.997
		c-2.207,0-3.999,1.797-3.999,3.999v7.998c0,2.211-1.789,3.999-3.999,3.999S0,98.187,0,95.976v-7.998
		c0-6.615,5.382-11.997,11.997-11.997h487.879c6.615,0,11.998,5.382,11.998,11.997v7.998
		C511.875,98.187,510.085,99.975,507.875,99.975z"/>
	<path style="fill:#116FFF;" d="M507.875,435.893H3.999c-2.21,0-3.999-1.789-3.999-3.999V95.976c0-2.21,1.789-3.999,3.999-3.999
		h503.875c2.211,0,4,1.789,4,3.999v335.918C511.875,434.104,510.085,435.893,507.875,435.893z M7.998,427.895h495.878V99.975H7.998
		V427.895z"/>
	<path style="fill:#116FFF;" d="M255.937,315.922c-0.484,0-0.964-0.086-1.425-0.266c-0.863-0.328-86.553-34.28-86.553-147.698
		c0-1.164,0.511-2.272,1.394-3.03c0.882-0.766,2.046-1.102,3.21-0.922c0.039,0.008,4.19,0.625,10.712,0.625
		c16.711,0,47.965-3.96,69.561-30.469c1.523-1.875,4.679-1.875,6.203,0c21.596,26.509,52.854,30.469,69.553,30.469
		c6.529,0,10.684-0.617,10.715-0.625c1.156-0.188,2.328,0.156,3.219,0.922c0.875,0.758,1.391,1.866,1.391,3.03
		c0,113.418-85.689,147.37-86.553,147.698C256.901,315.836,256.422,315.922,255.937,315.922z M176.004,172.379
		c1.999,96.664,69.33,130.483,79.957,135.209c11.115-4.78,77.949-37.593,79.91-135.209c-13.48,0.984-52.557,0.578-79.934-29.563
		C228.561,172.958,189.453,173.348,176.004,172.379z"/>
	<path style="fill:#116FFF;" d="M255.937,279.931c-2.21,0-3.999-1.789-3.999-3.999V171.958c0-2.21,1.789-3.999,3.999-3.999
		c2.211,0,3.998,1.789,3.998,3.999v103.975C259.935,278.142,258.148,279.931,255.937,279.931z"/>
	<path style="fill:#116FFF;" d="M483.88,411.899H27.993c-2.21,0-3.999-1.789-3.999-3.999v-15.996c0-2.211,1.789-3.999,3.999-3.999
		H483.88c2.211,0,4,1.788,4,3.999V407.9C487.88,410.11,486.091,411.899,483.88,411.899z M31.992,403.901h447.89v-7.998H31.992
		V403.901z"/>
	<path style="fill:#116FFF;" d="M247.939,411.899c-1.023,0-2.046-0.391-2.828-1.172c-1.562-1.562-1.562-4.093,0-5.655l15.996-15.996
		c1.562-1.562,4.094-1.562,5.656,0c1.561,1.562,1.561,4.094,0,5.655l-15.996,15.996
		C249.985,411.508,248.962,411.899,247.939,411.899z"/>
	<path style="fill:#116FFF;" d="M123.97,379.907H27.993c-2.21,0-3.999-1.789-3.999-3.999c0-2.211,1.789-3.999,3.999-3.999h95.977
		c2.21,0,3.999,1.788,3.999,3.999C127.969,378.118,126.18,379.907,123.97,379.907z"/>
	<path style="fill:#116FFF;" d="M483.88,379.907h-95.977c-2.209,0-3.998-1.789-3.998-3.999c0-2.211,1.789-3.999,3.998-3.999h95.977
		c2.211,0,4,1.788,4,3.999C487.88,378.118,486.091,379.907,483.88,379.907z"/>
	<path style="fill:#116FFF;" d="M76.54,275.932c-13.231,0-23.994-12.56-23.994-27.993c0-8.74,3.397-16.816,9.318-22.166
		c8.81-7.74,20.983-7.562,29.438,0.086c3.601,3.233,6.354,7.701,7.943,12.918c0.859,2.969,1.289,6.03,1.289,9.162
		s-0.43,6.193-1.277,9.115C95.875,268.356,86.748,275.932,76.54,275.932z M76.54,227.944c-4.155,0-7.385,2.069-9.357,3.804
		c-4.206,3.796-6.639,9.709-6.639,16.191c0,11.028,7.174,19.995,15.996,19.995c6.646,0,12.696-5.28,15.047-13.146
		c0.617-2.124,0.949-4.507,0.949-6.85s-0.332-4.726-0.957-6.881c-1.148-3.772-3.101-6.991-5.627-9.256
		C83.151,229.272,79.902,227.944,76.54,227.944z"/>
	<path style="fill:#116FFF;" d="M88.627,232.826c-0.188,0-0.371-0.016-0.562-0.039c-2.183-0.312-3.706-2.328-3.405-4.515
		c0.367-2.671,0.609-10.419-2.64-14.146c-2.574-2.952-8.318-2.968-10.904-0.023c-3.226,3.703-2.979,11.42-2.612,14.083
		c0.301,2.187-1.223,4.202-3.405,4.515c-2.164,0.25-4.202-1.219-4.515-3.397c-0.191-1.344-1.688-13.317,4.483-20.425
		c5.607-6.468,17.401-6.429,23.002,0.016c6.193,7.139,4.702,19.151,4.511,20.495C92.294,231.38,90.583,232.826,88.627,232.826z"/>
	<path style="fill:#116FFF;" d="M95.418,243.94c-2.21,0-3.999-1.789-3.999-3.999s1.789-3.999,3.999-3.999
		c2.78,0,4.741-0.797,6.17-2.499c3.671-4.374,3.011-13.606,2.449-16.793c-0.383-2.172,1.062-4.249,3.233-4.64
		c2.179-0.375,4.249,1.062,4.64,3.226c0.277,1.547,2.519,15.316-4.179,23.33C104.791,242.081,100.534,243.94,95.418,243.94z"/>
	<path style="fill:#116FFF;" d="M107.981,283.93c-0.234,0-0.473-0.023-0.711-0.062c-2.171-0.391-3.616-2.468-3.233-4.64
		c0.562-3.187,1.222-12.419-2.449-16.793c-1.429-1.702-3.39-2.499-6.17-2.499c-2.21,0-3.999-1.788-3.999-3.999
		c0-2.21,1.789-3.999,3.999-3.999c5.116,0,9.373,1.858,12.313,5.374c6.697,8.014,4.456,21.783,4.179,23.33
		C111.562,282.572,109.879,283.93,107.981,283.93z"/>
	<path style="fill:#116FFF;" d="M107.974,251.938H96.535c-2.211,0-3.999-1.789-3.999-3.999s1.788-3.999,3.999-3.999h11.438
		c2.21,0,3.999,1.789,3.999,3.999S110.184,251.938,107.974,251.938z"/>
	<path style="fill:#116FFF;" d="M43.981,283.93c-1.902,0-3.589-1.366-3.929-3.304c-0.273-1.547-2.476-15.34,4.237-23.338
		c2.933-3.499,7.174-5.351,12.255-5.351c2.21,0,3.999,1.789,3.999,3.999c0,2.211-1.789,3.999-3.999,3.999
		c-2.75,0-4.694,0.789-6.12,2.483c-3.683,4.374-3.05,13.622-2.495,16.824c0.375,2.172-1.078,4.241-3.253,4.624
		C44.442,283.907,44.212,283.93,43.981,283.93z"/>
	<path style="fill:#116FFF;" d="M56.545,243.94c-5.081,0-9.322-1.852-12.255-5.351c-6.713-7.998-4.511-21.791-4.237-23.338
		c0.379-2.171,2.429-3.608,4.624-3.241c2.175,0.383,3.628,2.452,3.253,4.624c-0.555,3.202-1.188,12.45,2.495,16.824
		c1.426,1.694,3.371,2.483,6.12,2.483c2.21,0,3.999,1.789,3.999,3.999S58.755,243.94,56.545,243.94z"/>
	<path style="fill:#116FFF;" d="M55.428,251.938H43.989c-2.21,0-3.999-1.789-3.999-3.999s1.789-3.999,3.999-3.999h11.438
		c2.21,0,3.999,1.789,3.999,3.999S57.638,251.938,55.428,251.938z"/>
	<path style="fill:#116FFF;" d="M115.972,307.924h-79.98c-2.21,0-3.999-1.788-3.999-3.999s1.789-3.999,3.999-3.999h79.98
		c2.21,0,3.999,1.788,3.999,3.999S118.182,307.924,115.972,307.924z"/>
	<path style="fill:#116FFF;" d="M95.977,323.92h-39.99c-2.21,0-3.999-1.788-3.999-3.999s1.789-3.999,3.999-3.999h39.99
		c2.21,0,3.999,1.788,3.999,3.999S98.187,323.92,95.977,323.92z"/>
	<path style="fill:#116FFF;" d="M75.981,163.959c-2.21,0-3.999-1.788-3.999-3.999v-15.996c0-2.21,1.789-3.999,3.999-3.999
		c2.21,0,3.999,1.789,3.999,3.999v15.996C79.98,162.171,78.191,163.959,75.981,163.959z"/>
	<path style="fill:#116FFF;" d="M75.981,188.672c-17.641,0-31.992-14.348-31.992-31.992s14.352-31.992,31.992-31.992
		s31.992,14.348,31.992,31.992S93.622,188.672,75.981,188.672z M75.981,132.686c-13.231,0-23.994,10.763-23.994,23.994
		s10.763,23.994,23.994,23.994s23.994-10.763,23.994-23.994S89.212,132.686,75.981,132.686z"/>
	<path style="fill:#116FFF;" d="M411.898,243.541c-2.209,0-3.998-1.788-3.998-3.999c0-11.028,8.967-19.995,19.994-19.995
		c2.211,0,4,1.789,4,3.999c0,2.211-1.789,3.999-4,3.999c-6.615,0-11.996,5.382-11.996,11.997
		C415.898,241.753,414.109,243.541,411.898,243.541z"/>
	<path style="fill:#116FFF;" d="M475.882,307.526h-87.979c-2.209,0-3.998-1.788-3.998-3.999c0-2.21,1.789-3.999,3.998-3.999h87.979
		c2.211,0,4,1.789,4,3.999C479.882,305.738,478.093,307.526,475.882,307.526z"/>
	<path style="fill:#116FFF;" d="M451.888,323.522h-39.99c-2.209,0-3.998-1.788-3.998-3.999c0-2.21,1.789-3.999,3.998-3.999h39.99
		c2.211,0,4,1.789,4,3.999C455.888,321.734,454.099,323.522,451.888,323.522z"/>
	<path style="fill:#116FFF;" d="M431.894,188.352c-17.637,0-31.992-14.348-31.992-31.992s14.355-31.992,31.992-31.992
		s31.992,14.348,31.992,31.992S449.531,188.352,431.894,188.352z M431.894,132.366c-13.232,0-23.994,10.763-23.994,23.994
		s10.762,23.994,23.994,23.994c13.23,0,23.994-10.763,23.994-23.994S445.125,132.366,431.894,132.366z"/>
	<path style="fill:#116FFF;" d="M467.884,283.532c-1.023,0-2.045-0.391-2.826-1.171l-15.996-15.996
		c-1.562-1.562-1.562-4.094,0-5.655c1.561-1.562,4.092-1.562,5.654,0l15.996,15.996c1.562,1.562,1.562,4.093,0,5.655
		C469.931,283.141,468.908,283.532,467.884,283.532z"/>
	<path style="fill:#116FFF;" d="M427.894,275.612c-19.846,0-35.99-16.145-35.99-35.991c0-19.886,16.145-36.069,35.99-36.069
		c19.848,0,35.992,16.184,35.992,36.069C463.886,259.467,447.742,275.612,427.894,275.612z M427.894,211.549
		c-15.434,0-27.992,12.591-27.992,28.071c0,15.434,12.559,27.993,27.992,27.993s27.994-12.56,27.994-27.993
		C455.888,224.14,443.328,211.549,427.894,211.549z"/>
	<path style="fill:#116FFF;" d="M427.894,167.56c-1.023,0-2.045-0.391-2.826-1.171l-7.998-7.998c-1.562-1.562-1.562-4.093,0-5.655
		c1.561-1.562,4.092-1.562,5.654,0l7.998,7.998c1.562,1.562,1.562,4.093,0,5.655C429.941,167.169,428.917,167.56,427.894,167.56z"/>
	<path style="fill:#116FFF;" d="M427.894,167.56c-1.023,0-2.045-0.391-2.826-1.171c-1.562-1.562-1.562-4.093,0-5.655l15.996-15.996
		c1.561-1.562,4.092-1.562,5.654,0s1.562,4.093,0,5.655l-15.996,15.996C429.941,167.169,428.917,167.56,427.894,167.56z"/>
	<path style="fill:#116FFF;" d="M323.919,363.911H195.952c-6.616,0-11.997-5.382-11.997-11.997s5.381-11.997,11.997-11.997h127.967
		c6.617,0,11.998,5.382,11.998,11.997S330.537,363.911,323.919,363.911z M195.952,347.915c-2.207,0-3.999,1.796-3.999,3.999
		c0,2.202,1.792,3.999,3.999,3.999h127.967c2.203,0,4-1.797,4-3.999c0-2.203-1.797-3.999-4-3.999H195.952z"/>
</g>
<g>
</g>
<g>
</g>
<g>
</g>
<g>
</g>
<g>
</g>
<g>
</g>
<g>
</g>
<g>
</g>
<g>
</g>
<g>
</g>
<g>
</g>
<g>
</g>
<g>
</g>
<g>
</g>
<g>
</g>
</svg>
