<?xml version="1.0" encoding="iso-8859-1"?>
<!-- Generator: Adobe Illustrator 19.0.0, SVG Export Plug-In . SVG Version: 6.00 Build 0)  -->
<svg version="1.1" id="Capa_1" xmlns="http://www.w3.org/2000/svg" xmlns:xlink="http://www.w3.org/1999/xlink" x="0px" y="0px"
	 viewBox="0 0 511.655 511.655" style="enable-background:new 0 0 511.655 511.655;" xml:space="preserve">
<path style="fill:#94C1FF;" d="M504.082,447.272l-87.164-87.162l-16.961,16.961l87.211,87.209c4.686,4.686,12.283,4.686,16.961,0
	c4.693-4.686,4.693-12.275,0.008-16.961C504.121,447.304,504.098,447.288,504.082,447.272z"/>
<path style="fill:#D7E9FF;" d="M492.821,458.628l-87.21-87.211l-5.654,5.654l87.211,87.209c4.686,4.686,12.283,4.686,16.961,0
	c0.999-1,1.741-2.139,2.311-3.342C501.989,463.048,496.515,462.313,492.821,458.628z"/>
<polygon style="fill:#FFFFFF;" points="425.102,347.741 3.998,347.741 3.998,59.869 435.801,59.869 435.801,326.298 "/>
<path style="fill:#5C9EFF;" d="M443.789,283.77c0,66.234-53.694,119.928-119.938,119.928c-66.251,0-119.945-53.693-119.938-119.928
	c-0.008-66.248,53.687-119.95,119.938-119.95C390.095,163.821,443.789,217.523,443.789,283.77z"/>
<g>
	<path style="fill:#94C1FF;" d="M219.907,283.77c0-63.546,49.446-115.413,111.94-119.543c-2.654-0.18-5.302-0.406-7.996-0.406
		c-66.251,0-119.945,53.702-119.938,119.95c-0.008,66.234,53.687,119.928,119.938,119.928c2.702,0,5.342-0.219,7.996-0.404
		C269.353,399.169,219.907,347.304,219.907,283.77z"/>
	<polygon style="fill:#94C1FF;" points="19.991,347.741 3.998,347.741 3.998,59.869 19.983,59.869 	"/>
</g>
<g>
	<path style="fill:#D7E9FF;" d="M435.801,59.869v-7.997c0-4.396-3.601-7.997-7.996-7.997H11.994c-4.404,0-7.996,3.592-7.996,8.004
		v7.989h431.803V59.869z"/>
	<path style="fill:#D7E9FF;" d="M355.837,291.751c0,22.098-14.321,39.996-31.985,39.996s-31.993-17.898-31.985-39.98
		c0-22.084,14.321-39.986,31.985-39.986S355.829,269.682,355.837,291.751z"/>
</g>
<path style="fill:#FFFFFF;" d="M299.863,291.766c0-20.367,12.229-36.996,27.986-39.479c-1.327-0.219-2.639-0.507-3.998-0.507
	c-17.664,0-31.985,17.902-31.985,39.986c-0.008,22.082,14.321,39.98,31.985,39.98c1.367,0,2.671-0.312,3.99-0.5
	C312.092,328.749,299.863,312.132,299.863,291.766z"/>
<path style="fill:#94C1FF;" d="M347.841,291.751c0-20.352-12.229-36.988-27.987-39.463c1.328-0.211,2.632-0.507,3.998-0.507
	c17.664,0,31.978,17.902,31.985,39.97c0,22.098-14.321,39.996-31.985,39.996c-1.366,0-2.67-0.297-3.998-0.5
	C335.612,328.749,347.841,312.132,347.841,291.751z"/>
<g style="opacity:0.4;">
	<polygon style="fill:#FFFFFF;" points="27.987,347.741 19.991,347.741 19.983,59.869 27.987,59.869 	"/>
</g>
<g>
	<path style="fill:#116FFF;" d="M20.233,55.87c-2.21,0-4.038-1.789-4.038-3.998c0-2.21,1.75-3.999,3.952-3.999h0.086
		c2.202,0,3.998,1.789,3.998,3.999C24.231,54.081,22.435,55.87,20.233,55.87z"/>
	<path style="fill:#116FFF;" d="M36.225,55.87c-2.21,0-4.037-1.789-4.037-3.998c0-2.21,1.749-3.999,3.951-3.999h0.086
		c2.202,0,3.998,1.789,3.998,3.999C40.224,54.081,38.428,55.87,36.225,55.87z"/>
	<path style="fill:#116FFF;" d="M52.218,55.87c-2.21,0-4.038-1.789-4.038-3.998c0-2.21,1.75-3.999,3.952-3.999h0.086
		c2.202,0,3.998,1.789,3.998,3.999C56.216,54.081,54.42,55.87,52.218,55.87z"/>
	<path style="fill:#116FFF;" d="M435.801,63.867H3.998C1.788,63.867,0,62.078,0,59.869V51.88c0-6.614,5.38-12.002,11.994-12.002
		h415.811c6.613,0,11.994,5.38,11.994,11.995v7.997C439.799,62.078,438.011,63.867,435.801,63.867z M7.996,55.87h423.807v-3.998
		c0-2.171-1.828-3.999-3.998-3.999H11.994c-2.202,0-3.998,1.796-3.998,4.006V55.87z"/>
	<path style="fill:#116FFF;" d="M435.793,199.804L435.793,199.804c-2.21,0-3.998-1.788-3.998-3.998l0.008-135.938
		c0-2.21,1.788-3.999,3.998-3.999l0,0c2.21,0,3.998,1.789,3.998,3.999l-0.008,135.938
		C439.791,198.016,438.003,199.804,435.793,199.804z"/>
	<path style="fill:#116FFF;" d="M3.998,351.739c-2.21,0-3.998-1.797-3.998-3.998V59.869c0-2.21,1.788-3.999,3.998-3.999
		s3.998,1.789,3.998,3.999v287.873C7.996,349.942,6.208,351.739,3.998,351.739z"/>
	<path style="fill:#116FFF;" d="M3.998,351.739c-2.21,0-3.998-1.797-3.998-3.998c0-2.219,1.788-4,3.998-4l191.912-0.016
		c2.21,0,3.998,1.797,3.998,4c0,2.217-1.788,3.998-3.998,3.998L3.998,351.739z"/>
	<path style="fill:#116FFF;" d="M19.991,351.739c-2.21,0-3.998-1.797-3.998-3.998L15.985,59.869c0-2.21,1.788-3.999,3.998-3.999
		s3.999,1.789,3.999,3.999l0.008,287.873C23.989,349.942,22.201,351.739,19.991,351.739z"/>
	<path style="fill:#116FFF;" d="M11.994,87.855H3.998C1.788,87.855,0,86.066,0,83.857c0-2.21,1.788-3.999,3.998-3.999h7.996
		c2.21,0,3.999,1.789,3.999,3.999S14.204,87.855,11.994,87.855z"/>
	<path style="fill:#116FFF;" d="M11.994,111.844H3.998c-2.21,0-3.998-1.788-3.998-3.998s1.788-3.998,3.998-3.998h7.996
		c2.21,0,3.999,1.788,3.999,3.998S14.204,111.844,11.994,111.844z"/>
	<path style="fill:#116FFF;" d="M11.994,135.833H3.998c-2.21,0-3.998-1.788-3.998-3.998s1.788-3.998,3.998-3.998h7.996
		c2.21,0,3.999,1.788,3.999,3.998S14.204,135.833,11.994,135.833z"/>
	<path style="fill:#116FFF;" d="M3.998,159.83c-2.21,0-3.998-1.789-3.998-3.998c0-2.202,1.788-3.999,3.99-3.999l7.996-0.008
		c0.008,0,0.008,0,0.008,0c2.21,0,3.999,1.789,3.999,3.991c0,2.209-1.789,4.006-3.991,4.006l-7.996,0.008
		C3.998,159.83,3.998,159.83,3.998,159.83z"/>
	<path style="fill:#116FFF;" d="M11.994,183.811H3.998c-2.21,0-3.998-1.788-3.998-3.998s1.788-3.999,3.998-3.999h7.996
		c2.21,0,3.999,1.789,3.999,3.999S14.204,183.811,11.994,183.811z"/>
	<path style="fill:#116FFF;" d="M11.994,207.8H3.998c-2.21,0-3.998-1.788-3.998-3.998s1.788-3.998,3.998-3.998h7.996
		c2.21,0,3.999,1.788,3.999,3.998S14.204,207.8,11.994,207.8z"/>
	<path style="fill:#116FFF;" d="M11.994,231.789H3.998c-2.21,0-3.998-1.788-3.998-3.998s1.788-3.998,3.998-3.998h7.996
		c2.21,0,3.999,1.788,3.999,3.998S14.204,231.789,11.994,231.789z"/>
	<path style="fill:#116FFF;" d="M3.998,255.786c-2.21,0-3.998-1.788-3.998-3.998c0-2.202,1.788-3.999,3.99-3.999l7.996-0.008
		c0.008,0,0.008,0,0.008,0c2.21,0,3.999,1.789,3.999,3.991c0,2.21-1.789,4.006-3.991,4.006l-7.996,0.008
		C3.998,255.786,3.998,255.786,3.998,255.786z"/>
	<path style="fill:#116FFF;" d="M11.994,279.77H3.998c-2.21,0-3.998-1.795-3.998-3.998c0-2.217,1.788-3.998,3.998-3.998h7.996
		c2.21,0,3.999,1.781,3.999,3.998C15.993,277.975,14.204,279.77,11.994,279.77z"/>
	<path style="fill:#116FFF;" d="M11.994,303.761H3.998c-2.21,0-3.998-1.797-3.998-3.998c0-2.219,1.788-3.998,3.998-3.998h7.996
		c2.21,0,3.999,1.779,3.999,3.998C15.993,301.964,14.204,303.761,11.994,303.761z"/>
	<path style="fill:#116FFF;" d="M11.994,327.749H3.998c-2.21,0-3.998-1.795-3.998-3.998c0-2.217,1.788-3.998,3.998-3.998h7.996
		c2.21,0,3.999,1.781,3.999,3.998C15.993,325.954,14.204,327.749,11.994,327.749z"/>
	<path style="fill:#116FFF;" d="M75.965,87.855H43.972c-2.21,0-3.998-1.789-3.998-3.998c0-2.21,1.788-3.999,3.998-3.999h31.993
		c2.21,0,3.999,1.789,3.999,3.999C79.963,86.067,78.175,87.855,75.965,87.855z"/>
	<path style="fill:#116FFF;" d="M219.899,111.844H107.95c-2.209,0-3.998-1.788-3.998-3.998s1.789-3.998,3.998-3.998h111.949
		c2.21,0,3.998,1.788,3.998,3.998S222.109,111.844,219.899,111.844z"/>
	<path style="fill:#116FFF;" d="M91.958,111.844H51.976c-2.21,0-3.998-1.788-3.998-3.998s1.788-3.998,3.998-3.998h39.982
		c2.21,0,3.998,1.788,3.998,3.998S94.168,111.844,91.958,111.844z"/>
	<path style="fill:#116FFF;" d="M315.855,135.833H211.903c-2.209,0-3.998-1.788-3.998-3.998s1.789-3.998,3.998-3.998h103.953
		c2.21,0,3.998,1.788,3.998,3.998S318.065,135.833,315.855,135.833z"/>
	<path style="fill:#116FFF;" d="M363.834,135.833h-31.986c-2.209,0-3.998-1.788-3.998-3.998s1.789-3.998,3.998-3.998h31.986
		c2.209,0,3.998,1.788,3.998,3.998S366.043,135.833,363.834,135.833z"/>
	<path style="fill:#116FFF;" d="M195.91,135.833H59.973c-2.21,0-3.998-1.788-3.998-3.998s1.788-3.998,3.998-3.998h135.938
		c2.21,0,3.998,1.788,3.998,3.998S198.12,135.833,195.91,135.833z"/>
	<path style="fill:#116FFF;" d="M83.961,183.811H59.973c-2.21,0-3.998-1.788-3.998-3.998s1.788-3.999,3.998-3.999h23.989
		c2.21,0,3.999,1.789,3.999,3.999S86.171,183.811,83.961,183.811z"/>
	<path style="fill:#116FFF;" d="M218.65,183.811H99.954c-2.21,0-3.998-1.788-3.998-3.998s1.788-3.999,3.998-3.999H218.65
		c2.21,0,3.998,1.789,3.998,3.999S220.86,183.811,218.65,183.811z"/>
	<path style="fill:#116FFF;" d="M251.885,159.823H67.969c-2.21,0-3.998-1.789-3.998-3.998c0-2.21,1.788-3.999,3.998-3.999h183.916
		c2.21,0,3.998,1.789,3.998,3.999C255.883,158.034,254.095,159.823,251.885,159.823z"/>
	<path style="fill:#116FFF;" d="M211.903,207.8h-39.982c-2.209,0-3.998-1.788-3.998-3.998s1.789-3.998,3.998-3.998h39.982
		c2.21,0,3.999,1.788,3.999,3.998S214.113,207.8,211.903,207.8z"/>
	<path style="fill:#116FFF;" d="M187.906,231.789H51.976c-2.21,0-3.998-1.788-3.998-3.998s1.788-3.998,3.998-3.998h135.93
		c2.21,0,3.998,1.788,3.998,3.998S190.116,231.789,187.906,231.789z"/>
	<path style="fill:#116FFF;" d="M131.939,279.77H51.976c-2.21,0-3.998-1.795-3.998-3.998c0-2.217,1.788-3.998,3.998-3.998h79.963
		c2.21,0,3.998,1.781,3.998,3.998C135.937,277.975,134.149,279.77,131.939,279.77z"/>
	<path style="fill:#116FFF;" d="M51.976,303.761c-2.21,0-3.998-1.781-3.998-3.998c0-2.203,1.788-3.998,3.998-3.998h63.971
		c2.21,0,3.999,1.779,3.999,3.998c0,2.201-1.789,3.998-3.999,3.998H51.976z"/>
	<path style="fill:#116FFF;" d="M187.906,255.779h-23.981c-2.21,0-3.998-1.788-3.998-3.998s1.788-3.999,3.998-3.999h23.981
		c2.21,0,3.998,1.789,3.998,3.999S190.116,255.779,187.906,255.779z"/>
	<path style="fill:#116FFF;" d="M147.932,255.779H59.973c-2.21,0-3.998-1.788-3.998-3.998s1.788-3.999,3.998-3.999h87.959
		c2.21,0,3.999,1.789,3.999,3.999S150.142,255.779,147.932,255.779z"/>
	<path style="fill:#116FFF;" d="M75.957,327.749H43.979c-2.21,0-3.998-1.795-3.998-3.998c0-2.217,1.788-3.998,3.998-3.998h31.978
		c2.21,0,3.999,1.781,3.999,3.998C79.955,325.954,78.167,327.749,75.957,327.749z"/>
	<path style="fill:#116FFF;" d="M155.929,207.808L155.929,207.808L59.973,207.8c-2.21,0-3.998-1.788-3.998-3.998
		s1.788-3.998,3.998-3.998l0,0l95.956,0.008c2.21,0,3.998,1.788,3.998,3.998S158.139,207.808,155.929,207.808z"/>
	<path style="fill:#116FFF;" d="M323.625,407.712c-33.109,0-64.236-12.883-87.647-36.295
		c-48.313-48.338-48.306-126.977,0.008-175.298c23.411-23.411,54.53-36.296,87.64-36.296c33.103,0,64.229,12.885,87.64,36.296
		c48.306,48.321,48.306,126.96,0,175.298C387.853,394.829,356.735,407.712,323.625,407.712z M323.625,167.819
		c-30.97,0-60.09,12.057-81.985,33.953c-45.198,45.206-45.198,118.778-0.008,163.991c21.903,21.896,51.023,33.953,81.993,33.953
		c30.971,0,60.09-12.057,81.986-33.953c45.19-45.213,45.19-118.785,0-163.991C383.707,179.876,354.596,167.819,323.625,167.819z"/>
	<path style="fill:#116FFF;" d="M487.183,468.278c-1.023,0-2.047-0.391-2.827-1.17l-76.895-76.871c-1.562-1.562-1.562-4.092,0-5.654
		s4.092-1.562,5.653,0l76.895,76.871c1.562,1.562,1.562,4.092,0,5.654C489.229,467.888,488.206,468.278,487.183,468.278z"/>
	<path style="fill:#116FFF;" d="M504.137,451.317c-1.023,0-2.047-0.391-2.827-1.17l-76.879-76.871c-1.562-1.562-1.562-4.092,0-5.654
		s4.092-1.562,5.653,0l76.879,76.871c1.562,1.561,1.562,4.092,0,5.654C506.182,450.927,505.159,451.317,504.137,451.317z"/>
	<path style="fill:#116FFF;" d="M495.664,471.776c-4.092,0-8.191-1.561-11.308-4.668c-1.562-1.562-1.562-4.092,0-5.654
		s4.092-1.562,5.653,0c3.124,3.123,8.184,3.123,11.308,0c1.507-1.516,2.343-3.529,2.343-5.654c0-2.139-0.836-4.139-2.351-5.652
		c-1.562-1.562-1.562-4.094,0-5.654c1.562-1.562,4.092-1.562,5.653,0c3.022,3.014,4.693,7.027,4.693,11.307
		c0,4.264-1.663,8.277-4.686,11.309C503.855,470.216,499.756,471.776,495.664,471.776z"/>
	<path style="fill:#116FFF;" d="M323.851,335.745c-9.784,0-18.929-4.701-25.738-13.213c-6.614-8.262-10.253-19.193-10.245-30.766
		c0-24.256,16.142-43.984,35.983-43.984c19.835,0,35.976,19.729,35.983,43.969C359.835,316.005,343.694,335.745,323.851,335.745z
		 M323.851,255.779c-15.43,0-27.987,16.136-27.987,35.988c0,9.775,3.015,18.928,8.488,25.77c5.271,6.59,12.198,10.213,19.499,10.213
		c15.431,0,27.987-16.148,27.987-35.998C351.831,271.915,339.274,255.779,323.851,255.779z"/>
	<path style="fill:#116FFF;" d="M355.197,287.768h-62.69c-2.21,0-3.998-1.797-3.998-3.998c0-2.219,1.788-4,3.998-4h62.69
		c2.209,0,3.998,1.781,3.998,4C359.195,285.972,357.406,287.768,355.197,287.768z"/>
	<path style="fill:#116FFF;" d="M323.851,335.745c-2.21,0-3.998-1.795-3.998-3.998v-47.977c0-2.219,1.788-4,3.998-4
		s3.998,1.781,3.998,4v47.977C327.849,333.95,326.061,335.745,323.851,335.745z"/>
	<path style="fill:#116FFF;" d="M331.848,247.782c-1.022,0-2.046-0.39-2.826-1.171c-1.562-1.562-1.562-4.092,0-5.653l15.992-15.993
		c1.562-1.562,4.092-1.562,5.654,0c1.562,1.562,1.562,4.092,0,5.654l-15.993,15.993
		C333.894,247.392,332.871,247.782,331.848,247.782z"/>
	<path style="fill:#116FFF;" d="M315.855,247.782c-1.023,0-2.046-0.39-2.827-1.171l-15.992-15.993c-1.562-1.562-1.562-4.092,0-5.654
		c1.562-1.562,4.092-1.562,5.653,0l15.992,15.993c1.562,1.562,1.562,4.092,0,5.653C317.901,247.392,316.879,247.782,315.855,247.782
		z"/>
	<path style="fill:#116FFF;" d="M371.83,295.749h-7.996c-2.211,0-3.999-1.781-3.999-3.998c0-2.203,1.788-3.998,3.999-3.998h7.996
		c2.209,0,3.998,1.795,3.998,3.998C375.828,293.968,374.039,295.749,371.83,295.749z"/>
	<path style="fill:#116FFF;" d="M363.857,279.77c-0.109,0-0.203,0-0.273-0.016c-2.203-0.139-3.882-2.029-3.741-4.232
		c0.125-2.014,1.71-3.576,3.663-3.732c0.538-0.344,4.326-3.326,4.326-20.009c0-2.21,1.788-3.999,3.998-3.999
		c2.209,0,3.998,1.789,3.998,3.999c0,12.919-2.187,21.509-6.497,25.554C367.027,279.507,364.802,279.77,363.857,279.77z"/>
	<path style="fill:#116FFF;" d="M371.83,335.729c-2.21,0-3.998-1.779-3.998-3.998c0-17.883-4.35-20.021-4.396-20.037
		c-2.141,0-3.772-1.516-3.912-3.717c-0.141-2.203,1.857-4.076,4.061-4.217c0.655-0.109,3.178,0,5.747,2.42
		c4.311,4.045,6.497,12.635,6.497,25.551C375.828,333.95,374.039,335.729,371.83,335.729z"/>
	<path style="fill:#116FFF;" d="M283.87,295.765h-7.996c-2.21,0-3.999-1.797-3.999-3.998c0-2.219,1.789-3.998,3.999-3.998h7.996
		c2.21,0,3.998,1.779,3.998,3.998C287.868,293.968,286.08,295.765,283.87,295.765z"/>
	<path style="fill:#116FFF;" d="M275.874,335.745c-2.21,0-3.999-1.795-3.999-3.998c-0.008-12.916,2.18-21.506,6.49-25.566
		c2.568-2.404,5.044-2.498,5.755-2.42c2.202,0.141,3.881,2.045,3.74,4.248c-0.125,1.998-1.71,3.576-3.662,3.732
		c-0.539,0.328-4.334,3.311-4.326,20.006C279.872,333.95,278.084,335.745,275.874,335.745z"/>
	<path style="fill:#116FFF;" d="M283.839,279.77c-0.945,0-3.171-0.264-5.474-2.42c-4.311-4.045-6.498-12.65-6.498-25.562
		c0-2.21,1.789-3.999,3.999-3.999s3.998,1.789,3.998,3.999c0,17.878,4.35,20.017,4.396,20.033c2.187,0,3.771,1.516,3.912,3.732
		c0.141,2.203-1.858,4.076-4.061,4.217C284.042,279.77,283.948,279.77,283.839,279.77z"/>
</g>
<g>
</g>
<g>
</g>
<g>
</g>
<g>
</g>
<g>
</g>
<g>
</g>
<g>
</g>
<g>
</g>
<g>
</g>
<g>
</g>
<g>
</g>
<g>
</g>
<g>
</g>
<g>
</g>
<g>
</g>
</svg>
