<?xml version="1.0" encoding="UTF-8"?>
<svg width="14px" height="15px" viewBox="0 0 14 15" version="1.1" xmlns="http://www.w3.org/2000/svg" xmlns:xlink="http://www.w3.org/1999/xlink">
    <!-- Generator: Sketch 46.2 (44496) - http://www.bohemiancoding.com/sketch -->
    <title>arrow-down-sign-to-navigate</title>
    <desc>Created with Sketch.</desc>
    <defs></defs>
    <g id="v2" stroke="none" stroke-width="1" fill="none" fill-rule="evenodd">
        <g id="2Teya-dashboard-Copy" transform="translate(-1205.000000, -108.000000)" fill-rule="nonzero" fill="#5D6574">
            <g id="arrow-down-sign-to-navigate" transform="translate(1205.000000, 108.000000)">
                <g id="calendar-page-empty">
                    <path d="M13.6621471,2.45923828 C13.4496471,2.24733398 13.1975294,2.14136719 12.9064412,2.14136719 L11.8317059,2.14136719 L11.8317059,1.33833984 C11.8317059,0.970371094 11.7000294,0.655283203 11.4369412,0.393193359 C11.1737059,0.131103516 10.8575588,0 10.4879706,0 L9.95067647,0 C9.58111765,0 9.26485294,0.131103516 9.00173529,0.393222656 C8.73852941,0.655283203 8.60697059,0.970400391 8.60697059,1.33836914 L8.60697059,2.14139648 L5.38255882,2.14139648 L5.38255882,1.33836914 C5.38255882,0.970400391 5.25094118,0.6553125 4.98779412,0.393222656 C4.72470588,0.131103516 4.40841176,0 4.03885294,0 L3.50147059,0 C3.132,0 2.81567647,0.131103516 2.55252941,0.393222656 C2.28944118,0.655283203 2.15779412,0.970400391 2.15779412,1.33836914 L2.15779412,2.14139648 L1.08302941,2.14139648 C0.791852941,2.14139648 0.539970588,2.24736328 0.327235294,2.45926758 C0.1145,2.67114258 0.00811764706,2.9221582 0.00811764706,3.21210937 L0.00811764706,13.9187402 C0.00811764706,14.2084863 0.1145,14.4594434 0.327235294,14.6714648 C0.539941176,14.8833105 0.791823529,14.9893066 1.08302941,14.9893066 L12.9062353,14.9893066 C13.1973235,14.9893066 13.4494706,14.8833398 13.6619412,14.6714648 C13.8747059,14.4595312 13.9811176,14.208457 13.9811176,13.9187402 L13.9811176,3.21208008 C13.9810882,2.92204102 13.8747941,2.67114258 13.6621471,2.45923828 Z M9.68197059,1.33845703 C9.68197059,1.26032227 9.70694118,1.19613281 9.75726471,1.14606445 C9.80758824,1.0959375 9.872,1.07083008 9.9505,1.07083008 L10.4877941,1.07083008 C10.5663235,1.07083008 10.6305294,1.09584961 10.6810294,1.14606445 C10.7313824,1.1962207 10.7565294,1.26041016 10.7565294,1.33845703 L10.7565294,3.74736328 C10.7565294,3.82546875 10.7313824,3.88954102 10.6810294,3.93975586 C10.6305,3.98982422 10.5663235,4.01499023 10.4877941,4.01499023 L9.9505,4.01499023 C9.872,4.01499023 9.80758824,3.98994141 9.75726471,3.93975586 C9.70694118,3.88951172 9.68197059,3.82546875 9.68197059,3.74736328 L9.68197059,1.33845703 Z M3.23279412,1.33845703 C3.23279412,1.26032227 3.25794118,1.19613281 3.30832353,1.14606445 C3.35873529,1.0959375 3.42305882,1.07083008 3.50147059,1.07083008 L4.03885294,1.07083008 C4.11729412,1.07083008 4.18173529,1.09584961 4.232,1.14606445 C4.28232353,1.1962207 4.30758824,1.26041016 4.30758824,1.33845703 L4.30758824,3.74736328 C4.30758824,3.82546875 4.28244118,3.88962891 4.232,3.93975586 C4.18161765,3.98982422 4.11729412,4.01499023 4.03885294,4.01499023 L3.50147059,4.01499023 C3.42305882,4.01499023 3.35864706,3.98994141 3.30832353,3.93975586 C3.25805882,3.88951172 3.23279412,3.82546875 3.23279412,3.74736328 L3.23279412,1.33845703 Z M12.9062353,13.9185938 L1.08302941,13.9185938 L1.08302941,5.35335938 L12.9062353,5.35335938 L12.9062353,13.9185938 L12.9062353,13.9185938 Z" id="Shape"></path>
                </g>
            </g>
        </g>
    </g>
</svg>