<?xml version="1.0" encoding="iso-8859-1"?>
<!-- Generator: Adobe Illustrator 19.0.0, SVG Export Plug-In . SVG Version: 6.00 Build 0)  -->
<svg version="1.1" id="Capa_1" xmlns="http://www.w3.org/2000/svg" xmlns:xlink="http://www.w3.org/1999/xlink" x="0px" y="0px"
	 viewBox="0 0 512 512" style="enable-background:new 0 0 512 512;" xml:space="preserve">
<path style="fill:#94C1FF;" d="M99.954,56.091c0,13.251-10.737,23.989-23.989,23.989S51.977,69.343,51.977,56.091
	s10.737-23.989,23.989-23.989S99.954,42.84,99.954,56.091z"/>
<path style="fill:#D7E9FF;" d="M59.973,56.091c0-11.885,8.652-21.677,19.991-23.583c-1.312-0.226-2.631-0.406-3.998-0.406
	c-13.251,0-23.989,10.737-23.989,23.989S62.714,80.08,75.965,80.08c1.367,0,2.686-0.18,3.998-0.406
	C68.625,77.769,59.973,67.977,59.973,56.091z"/>
<g>
	<path style="fill:#5C9EFF;" d="M91.958,56.091c0,11.885-8.652,21.677-19.991,23.583c1.305,0.226,2.624,0.406,3.999,0.406
		c13.251,0,23.989-10.737,23.989-23.989s-10.738-23.988-23.99-23.988c-1.375,0-2.694,0.18-3.999,0.406
		C83.306,34.414,91.958,44.206,91.958,56.091z"/>
	<path style="fill:#5C9EFF;" d="M479.796,375.945h-31.985c8.832,0,15.993-7.161,15.993-15.993s-7.161-15.993-15.993-15.993h-31.985
		c8.832,0,15.993-7.16,15.993-15.992s-7.161-15.992-15.993-15.992h-47.978c8.832,0,15.992-7.161,15.992-15.993
		s-7.16-15.993-15.992-15.993h87.959c8.832,0,15.993-7.16,15.993-15.992s-7.161-15.993-15.993-15.993h-39.981
		c8.832,0,15.993-7.161,15.993-15.993s-7.161-15.993-15.993-15.993h-15.993c8.832,0,15.993-7.161,15.993-15.993
		s-7.161-15.993-15.993-15.993h79.964c8.832,0,15.993-7.161,15.993-15.993s-7.161-15.993-15.993-15.993h-31.985
		c8.832,0,15.993-7.161,15.993-15.993s-7.161-15.993-15.993-15.993h-31.985c8.832,0,15.993-7.161,15.993-15.993
		s-7.161-15.993-15.993-15.993h-23.989c8.832,0,15.993-7.161,15.993-15.993s-7.161-15.993-15.993-15.993h-239.89
		c-8.832,0-15.993,7.161-15.993,15.993s7.161,15.993,15.993,15.993H95.972c-8.832,0-15.993,7.161-15.993,15.993
		s7.161,15.993,15.993,15.993H79.979c-8.832,0-15.993,7.161-15.993,15.993s7.161,15.993,15.993,15.993h47.978
		c-8.832,0-15.993,7.161-15.993,15.993s7.161,15.993,15.993,15.993h-87.96c-8.832,0-15.992,7.161-15.992,15.993
		s7.161,15.993,15.992,15.993h39.982c-8.832,0-15.993,7.161-15.993,15.993s7.161,15.993,15.993,15.993H39.997
		c-8.832,0-15.992,7.161-15.992,15.993s7.161,15.992,15.992,15.992H24.005c-8.832,0-15.993,7.161-15.993,15.993
		s7.161,15.993,15.993,15.993h39.981c-8.832,0-15.993,7.16-15.993,15.992s7.161,15.992,15.993,15.992H47.994
		c-8.832,0-15.993,7.161-15.993,15.993s7.161,15.993,15.993,15.993h79.963c-8.832,0-15.993,7.16-15.993,15.992
		s7.161,15.992,15.993,15.992H95.972c-8.832,0-15.993,7.161-15.993,15.993s7.161,15.993,15.993,15.993h271.876
		c8.832,0,15.992-7.161,15.992-15.993s-7.16-15.993-15.992-15.993h111.948c8.832,0,15.993-7.16,15.993-15.992
		S488.628,375.945,479.796,375.945z"/>
</g>
<circle style="fill:#94C1FF;" cx="255.88" cy="252" r="151.93"/>
<path style="fill:#D7E9FF;" d="M375.039,239.335c-29.916,2.288-40.802-16.016-36.873-21.381c6.824-9.285,40.465,14.767,42.621-1.937
	c0.39-3.014,12.338-11.299,19.045-12.331c-12.064-35.944-37.139-65.876-69.702-84.164c-1.694-0.922-3.389-1.835-5.091-2.687
	c-0.805-0.414-1.641-0.781-2.452-1.179c-4.428-2.132-8.871-4.076-13.291-5.74c-1.483,4.631-7.138,7.497-7.793,7.817
	c-22.825,11.089-49.931,18.937-66.095,40.248c-2.288,2.998-5.365,9.113-2.108,12.682c4.006,4.436,15.5-0.117,20.787,0.266
	c14.626,1.046,50.93,8.082,52.272,14.767c1.336,6.708-11.268,22.286-27.893,13.111c-4.904-2.709-24.106-5.623-30.752-6.825
	c-4.639-0.836-46.322,6.083-44.542,53.772c0.734,19.335,13.197,32.938,32.711,33.157c16.172,0.18,33.993,0,38.654,14.103
	c5.287,16.001,2.897,29.401,6.888,45.526c1.616,6.497,4.381,25.129,12.611,25.832c12.471,1.069,24.614-7.349,32.103-16.048
	c5.974-6.949,14.212-13.782,18.663-21.903c7.067-12.916,11.558-40.114,19.031-53.062
	C369.847,262.941,384.496,238.617,375.039,239.335z"/>
<g style="opacity:0.3;">
	<path style="fill:#FFFFFF;" d="M292.608,201.173c13.47,2.967,22.911-9.628,21.748-15.477c-1.344-6.685-37.647-13.721-52.273-14.767
		c-1.179-0.086-2.694,0.093-4.342,0.343c16.243,1.765,47.377,8.239,48.618,14.423C307.281,190.303,301.628,199.081,292.608,201.173z
		"/>
	<path style="fill:#FFFFFF;" d="M244.107,172.179c-1.101-0.297-2.101-0.734-2.811-1.515c-3.256-3.569-0.18-9.684,2.108-12.682
		c16.164-21.311,43.27-29.159,66.095-40.248c0.516-0.25,4.029-2.054,6.271-5.021c-2.155-0.929-4.318-1.983-6.474-2.796
		c-1.483,4.631-7.138,7.497-7.793,7.817c-22.825,11.089-49.931,18.937-66.095,40.248c-2.288,2.998-5.365,9.113-2.108,12.682
		C235.447,173.046,239.758,172.819,244.107,172.179z"/>
	<path style="fill:#FFFFFF;" d="M289.422,338.54c-3.99-16.125-1.601-29.525-6.887-45.526c-4.662-14.103-22.482-13.923-38.654-14.103
		c-19.515-0.219-31.978-13.821-32.712-33.157c-1.476-39.451,26.746-50.969,39.186-53.312c-0.992-0.171-1.921-0.328-2.64-0.46
		c-4.639-0.836-46.322,6.083-44.542,53.772c0.734,19.335,13.197,32.938,32.711,33.157c16.172,0.18,33.993,0,38.654,14.103
		c5.287,16.001,2.897,29.401,6.888,45.526c1.616,6.497,4.381,25.129,12.611,25.832c2.312,0.195,4.6-0.023,6.864-0.414
		C293.584,361.662,290.953,344.717,289.422,338.54z"/>
</g>
<path style="fill:#D7E9FF;" d="M151.649,321.712c4.256-14.485-10.214-60.964-47.697-69.71c0,41.23,16.485,78.573,43.152,105.943
	C151.915,353.682,149.83,327.92,151.649,321.712z"/>
<path style="fill:#5C9EFF;" d="M255.883,100.071c-2.702,0-5.333,0.266-7.996,0.406c80.166,4.186,143.934,70.319,143.934,151.524
	S328.053,399.34,247.887,403.526c2.663,0.14,5.294,0.405,7.996,0.405c83.907,0,151.931-68.023,151.931-151.93
	C407.813,168.095,339.79,100.071,255.883,100.071z"/>
<path style="fill:#D7E9FF;" d="M119.945,252.002c0-81.205,63.768-147.339,143.934-151.524c-2.662-0.141-5.302-0.406-7.996-0.406
	c-83.907,0-151.931,68.023-151.931,151.931c0,83.906,68.024,151.93,151.931,151.93c2.694,0,5.334-0.266,7.996-0.405
	C183.713,399.34,119.945,333.207,119.945,252.002z"/>
<path style="fill:#94C1FF;" d="M385.979,210.521c4.154-3.092,9.894-6.224,13.853-6.833c-0.008-0.023-0.016-0.047-0.023-0.07
	c-12.072-35.913-37.131-65.821-69.679-84.094c-1.687-0.922-3.381-1.835-5.083-2.679c-0.812-0.422-1.648-0.789-2.46-1.187
	c-4.428-2.132-8.871-4.076-13.291-5.74c-0.694,2.163-2.288,3.92-3.865,5.232C344.327,133.751,374.009,168.376,385.979,210.521z"/>
<path style="fill:#FFFFFF;" d="M105.874,275.015c0.367,2.413,0.625,4.864,1.109,7.239c0.703,3.475,1.655,6.855,2.593,10.237
	c0.375,1.351,0.64,2.741,1.046,4.076c1.242,4.037,2.71,7.965,4.271,11.846c0.242,0.609,0.43,1.25,0.68,1.851
	c1.788,4.295,3.787,8.488,5.958,12.58c0.078,0.148,0.141,0.305,0.219,0.453c6.802,12.736,15.36,24.396,25.355,34.648
	c2.155-1.913,2.921-8.152,3.28-15.017c-17.734-23.591-28.667-52.491-30.095-83.946c-4.881-3.092-10.277-5.567-16.337-6.98
	c0,5.192,0.266,10.315,0.773,15.367C104.991,269.962,105.491,272.469,105.874,275.015z"/>
<g>
	<circle style="fill:#5C9EFF;" cx="275.87" cy="240.01" r="15.993"/>
	<circle style="fill:#5C9EFF;" cx="155.93" cy="200.03" r="15.993"/>
</g>
<path style="fill:#94C1FF;" d="M147.933,200.025c0-7.442,5.106-13.642,11.994-15.431c-1.288-0.328-2.608-0.562-3.998-0.562
	c-8.832,0-15.993,7.161-15.993,15.993s7.161,15.993,15.993,15.993c1.39,0,2.71-0.234,3.998-0.562
	C153.039,213.667,147.933,207.467,147.933,200.025z"/>
<path style="fill:#2287FF;" d="M163.683,200.025c0,7.442-5.106,13.642-11.994,15.431c1.28,0.328,2.608,0.562,3.998,0.562
	c8.832,0,15.993-7.161,15.993-15.993s-7.161-15.993-15.993-15.993c-1.39,0-2.718,0.234-3.998,0.562
	C158.576,186.383,163.683,192.583,163.683,200.025z"/>
<path style="fill:#94C1FF;" d="M267.994,240.007c0-7.441,5.107-13.642,11.995-15.43c-1.28-0.328-2.608-0.562-3.998-0.562
	c-8.832,0-15.993,7.161-15.993,15.992c0,8.832,7.161,15.993,15.993,15.993c1.39,0,2.718-0.234,3.998-0.562
	C273.102,253.649,267.994,247.449,267.994,240.007z"/>
<path style="fill:#2287FF;" d="M283.745,240.007c0,7.442-5.106,13.643-11.994,15.431c1.288,0.328,2.608,0.562,3.998,0.562
	c8.832,0,15.992-7.161,15.992-15.993s-7.16-15.992-15.992-15.992c-1.39,0-2.71,0.234-3.998,0.562
	C278.639,226.365,283.745,232.565,283.745,240.007z"/>
<circle style="fill:#5C9EFF;" cx="227.9" cy="335.96" r="15.993"/>
<path style="fill:#94C1FF;" d="M220.017,335.963c0-7.441,5.107-13.642,11.994-15.43c-1.28-0.328-2.608-0.562-3.998-0.562
	c-8.832,0-15.992,7.16-15.992,15.992s7.16,15.993,15.992,15.993c1.39,0,2.718-0.234,3.998-0.562
	C225.124,349.605,220.017,343.405,220.017,335.963z"/>
<path style="fill:#2287FF;" d="M235.767,335.963c0,7.442-5.107,13.643-11.995,15.431c1.289,0.328,2.608,0.562,3.998,0.562
	c8.832,0,15.993-7.161,15.993-15.993s-7.161-15.992-15.993-15.992c-1.39,0-2.709,0.234-3.998,0.562
	C230.66,322.321,235.767,328.521,235.767,335.963z"/>
<circle style="fill:#94C1FF;" cx="375.83" cy="451.91" r="35.983"/>
<path style="fill:#5C9EFF;" d="M375.828,415.927c-1.375,0-2.671,0.258-3.998,0.406c17.968,2.007,31.985,17.07,31.985,35.577
	s-14.018,33.57-31.985,35.577c1.327,0.148,2.623,0.406,3.998,0.406c19.873,0,35.983-16.109,35.983-35.983
	S395.701,415.927,375.828,415.927z"/>
<path style="fill:#D7E9FF;" d="M347.841,451.91c0-18.507,14.017-33.57,31.985-35.577c-1.336-0.148-2.632-0.406-3.998-0.406
	c-19.874,0-35.983,16.109-35.983,35.983s16.109,35.983,35.983,35.983c1.366,0,2.662-0.258,3.998-0.406
	C361.857,485.48,347.841,470.417,347.841,451.91z"/>
<path style="fill:#94C1FF;" d="M395.818,439.916c0,4.42-3.584,7.996-7.996,7.996c-4.42,0-7.996-3.576-7.996-7.996
	s3.576-7.997,7.996-7.997C392.234,431.919,395.818,435.496,395.818,439.916z"/>
<g>
	<path style="fill:#116FFF;" d="M356.071,52.093c-2.202,0-4.037-1.788-4.037-3.998s1.749-3.998,3.959-3.998h0.078
		c2.21,0,3.998,1.788,3.998,3.998S358.281,52.093,356.071,52.093z"/>
	<path style="fill:#116FFF;" d="M164.159,68.086c-2.202,0-4.037-1.788-4.037-3.998c0-2.21,1.749-3.999,3.959-3.999h0.078
		c2.21,0,3.998,1.789,3.998,3.999C168.157,66.298,166.369,68.086,164.159,68.086z"/>
	<path style="fill:#116FFF;" d="M252.119,20.107c-2.202,0-4.037-1.788-4.037-3.998s1.749-3.998,3.959-3.998h0.078
		c2.21,0,3.998,1.788,3.998,3.998S254.329,20.107,252.119,20.107z"/>
	<path style="fill:#116FFF;" d="M436.035,20.107c-2.202,0-4.037-1.788-4.037-3.998s1.749-3.998,3.959-3.998h0.078
		c2.209,0,3.998,1.788,3.998,3.998S438.244,20.107,436.035,20.107z"/>
	<path style="fill:#116FFF;" d="M492.01,164.042c-2.203,0-4.038-1.788-4.038-3.998s1.749-3.998,3.96-3.998h0.078
		c2.209,0,3.998,1.788,3.998,3.998S494.219,164.042,492.01,164.042z"/>
	<path style="fill:#116FFF;" d="M452.027,220.017c-2.202,0-4.037-1.789-4.037-3.999s1.749-3.998,3.959-3.998h0.078
		c2.21,0,3.998,1.788,3.998,3.998S454.237,220.017,452.027,220.017z"/>
	<path style="fill:#116FFF;" d="M36.218,244.005c-2.202,0-4.037-1.789-4.037-3.999s1.749-3.998,3.959-3.998h0.078
		c2.21,0,3.998,1.788,3.998,3.998S38.428,244.005,36.218,244.005z"/>
	<path style="fill:#116FFF;" d="M68.203,331.965c-2.202,0-4.037-1.788-4.037-3.998s1.749-3.998,3.959-3.998h0.078
		c2.21,0,3.998,1.788,3.998,3.998S70.413,331.965,68.203,331.965z"/>
	<path style="fill:#116FFF;" d="M4.232,395.936c-2.202,0-4.037-1.788-4.037-3.998s1.749-3.998,3.959-3.998h0.078
		c2.21,0,3.998,1.788,3.998,3.998S6.442,395.936,4.232,395.936z"/>
	<path style="fill:#116FFF;" d="M460.023,403.932c-2.201,0-4.037-1.788-4.037-3.998s1.75-3.998,3.959-3.998h0.078
		c2.21,0,3.998,1.788,3.998,3.998S462.233,403.932,460.023,403.932z"/>
	<path style="fill:#116FFF;" d="M124.178,427.921c-2.202,0-4.037-1.788-4.037-3.998s1.749-3.998,3.959-3.998h0.078
		c2.21,0,3.998,1.788,3.998,3.998S126.388,427.921,124.178,427.921z"/>
	<path style="fill:#116FFF;" d="M196.816,499.889c-2.21,0-4.037-1.789-4.037-3.999s1.749-3.998,3.959-3.998h0.078
		c2.21,0,3.998,1.788,3.998,3.998S199.026,499.889,196.816,499.889z"/>
	<path style="fill:#116FFF;" d="M268.111,459.906c-2.201,0-4.037-1.788-4.037-3.998s1.75-3.998,3.959-3.998h0.078
		c2.21,0,3.998,1.788,3.998,3.998S270.321,459.906,268.111,459.906z"/>
	<path style="fill:#116FFF;" d="M508.002,491.892c-2.202,0-4.037-1.788-4.037-3.998s1.749-3.998,3.959-3.998h0.078
		c2.21,0,3.998,1.788,3.998,3.998S510.212,491.892,508.002,491.892z"/>
	<path style="fill:#116FFF;" d="M372.064,475.899c-2.202,0-4.037-1.788-4.037-3.999c0-2.209,1.749-3.998,3.959-3.998h0.078
		c2.209,0,3.998,1.789,3.998,3.998C376.062,474.111,374.273,475.899,372.064,475.899z"/>
	<path style="fill:#116FFF;" d="M356.071,451.91c-2.202,0-4.037-1.788-4.037-3.998s1.749-3.998,3.959-3.998h0.078
		c2.21,0,3.998,1.788,3.998,3.998S358.281,451.91,356.071,451.91z"/>
	<path style="fill:#116FFF;" d="M375.828,491.892c-22.045,0-39.982-17.937-39.982-39.981s17.938-39.981,39.982-39.981
		s39.981,17.937,39.981,39.981S397.873,491.892,375.828,491.892z M375.828,419.925c-17.641,0-31.985,14.345-31.985,31.985
		s14.345,31.985,31.985,31.985c17.633,0,31.985-14.345,31.985-31.985S393.461,419.925,375.828,419.925z"/>
	<path style="fill:#116FFF;" d="M387.822,451.91c-6.614,0-11.994-5.381-11.994-11.994c0-6.614,5.38-11.995,11.994-11.995
		s11.994,5.381,11.994,11.995C399.816,446.529,394.437,451.91,387.822,451.91z M387.822,435.918c-2.21,0-3.998,1.795-3.998,3.998
		c0,2.201,1.788,3.998,3.998,3.998c2.202,0,3.998-1.797,3.998-3.998C391.82,437.713,390.024,435.918,387.822,435.918z"/>
	<path style="fill:#116FFF;" d="M451.793,116.063c-2.21,0-3.998-1.788-3.998-3.998V80.08c0-2.21,1.788-3.998,3.998-3.998
		s3.998,1.788,3.998,3.998v31.985C455.791,114.275,454.003,116.063,451.793,116.063z"/>
	<path style="fill:#116FFF;" d="M459.789,100.071h-15.992c-2.21,0-3.998-1.788-3.998-3.998s1.788-3.999,3.998-3.999h15.992
		c2.211,0,3.999,1.789,3.999,3.999S462,100.071,459.789,100.071z"/>
	<path style="fill:#116FFF;" d="M475.782,331.965c-2.21,0-3.998-1.788-3.998-3.998v-31.985c0-2.21,1.788-3.998,3.998-3.998
		s3.998,1.788,3.998,3.998v31.985C479.78,330.177,477.992,331.965,475.782,331.965z"/>
	<path style="fill:#116FFF;" d="M483.778,315.973h-15.992c-2.21,0-3.998-1.789-3.998-3.998c0-2.211,1.788-3.998,3.998-3.998h15.992
		c2.21,0,3.999,1.787,3.999,3.998C487.777,314.184,485.988,315.973,483.778,315.973z"/>
	<path style="fill:#116FFF;" d="M67.969,491.892c-2.21,0-3.998-1.788-3.998-3.998v-31.985c0-2.21,1.788-3.998,3.998-3.998
		s3.998,1.788,3.998,3.998v31.985C71.967,490.104,70.179,491.892,67.969,491.892z"/>
	<path style="fill:#116FFF;" d="M75.965,475.899H59.973c-2.21,0-3.998-1.788-3.998-3.999c0-2.209,1.788-3.998,3.998-3.998h15.993
		c2.21,0,3.998,1.789,3.998,3.998C79.963,474.111,78.175,475.899,75.965,475.899z"/>
	<path style="fill:#116FFF;" d="M11.995,172.038c-2.21,0-3.999-1.788-3.999-3.998v-31.985c0-2.21,1.789-3.998,3.999-3.998
		c2.209,0,3.998,1.788,3.998,3.998v31.985C15.993,170.25,14.204,172.038,11.995,172.038z"/>
	<path style="fill:#116FFF;" d="M19.991,156.046H3.998c-2.21,0-3.998-1.789-3.998-3.999s1.788-3.998,3.998-3.998h15.993
		c2.209,0,3.998,1.788,3.998,3.998S22.201,156.046,19.991,156.046z"/>
	<path style="fill:#116FFF;" d="M75.965,84.078c-7.473,0-14.501-2.912-19.788-8.199c-5.287-5.286-8.2-12.314-8.2-19.788
		c0-7.481,2.913-14.509,8.2-19.788c10.573-10.573,29.002-10.573,39.575,0c5.287,5.278,8.199,12.307,8.199,19.788
		c0,7.473-2.912,14.501-8.199,19.788C90.466,81.166,83.438,84.078,75.965,84.078z M75.965,36.101
		c-5.341,0-10.363,2.077-14.134,5.856c-3.779,3.771-5.856,8.793-5.856,14.134c0,5.333,2.077,10.355,5.856,14.134
		c7.551,7.559,20.717,7.559,28.269,0c3.771-3.779,5.856-8.801,5.856-14.134c0-5.341-2.085-10.363-5.856-14.134
		C86.32,38.178,81.299,36.101,75.965,36.101z"/>
	<path style="fill:#116FFF;" d="M55.303,83.376c-1.858,0-3.49-0.555-4.779-1.843c-1.562-1.562-1.562-4.092,0-5.654
		c1.383-1.39,3.538-1.538,5.092-0.468c2.562-0.148,11.651-4.974,23.177-16.493C90.311,47.4,95.136,38.303,95.284,35.733
		c-1.077-1.554-0.921-3.709,0.469-5.091c1.562-1.562,4.092-1.562,5.654,0c8.075,8.075-12.713,29.682-16.961,33.93
		C80.877,68.141,65.056,83.376,55.303,83.376z"/>
	<path style="fill:#116FFF;" d="M123.936,180.628c-0.672,0-1.359-0.172-1.983-0.531c-1.921-1.093-2.585-3.537-1.484-5.45
		c27.745-48.47,79.635-78.573,135.415-78.573c32.556,0,63.744,9.94,90.209,28.744c1.804,1.273,2.226,3.772,0.944,5.576
		c-1.28,1.788-3.779,2.209-5.575,0.937c-25.098-17.835-54.693-27.261-85.578-27.261c-52.921,0-102.148,28.565-128.473,74.544
		C126.669,179.91,125.317,180.628,123.936,180.628z"/>
	<path style="fill:#116FFF;" d="M195.91,395.623c-0.523,0-1.062-0.102-1.577-0.328c-57.333-24.652-94.379-80.9-94.379-143.293
		c0-15.368,2.233-30.557,6.63-45.136c0.633-2.108,2.866-3.304,4.982-2.671c2.116,0.641,3.311,2.866,2.67,4.982
		c-4.17,13.829-6.286,28.237-6.286,42.824c0,59.199,35.148,112.565,89.537,135.953c2.03,0.867,2.967,3.217,2.101,5.248
		C198.933,394.718,197.457,395.623,195.91,395.623z"/>
	<path style="fill:#116FFF;" d="M255.883,407.93c-12.447,0-24.848-1.476-36.858-4.388c-2.147-0.523-3.459-2.687-2.943-4.834
		c0.523-2.147,2.655-3.413,4.833-2.944c11.385,2.765,23.153,4.17,34.968,4.17c81.572,0,147.933-66.359,147.933-147.932
		c0-39.232-15.212-76.2-42.84-104.093c-1.554-1.57-1.538-4.1,0.023-5.654c1.577-1.562,4.1-1.53,5.661,0.031
		c29.111,29.4,45.151,68.367,45.151,109.716C411.812,337.978,341.859,407.93,255.883,407.93z"/>
	<path style="fill:#116FFF;" d="M298.957,369.042c-0.844,0-1.71-0.039-2.585-0.117c-8.348-0.711-14.165-7.435-17.281-19.983
		c-2.062-8.324-2.718-16.797-3.35-24.988c-0.695-8.988-1.351-17.469-3.694-25.895c-1.358-4.951-3.537-8.48-6.66-10.8
		c-1.773-1.312-2.147-3.818-0.828-5.591c1.32-1.766,3.818-2.14,5.592-0.828c4.614,3.428,7.762,8.363,9.604,15.087
		c2.546,9.16,3.264,18.437,3.959,27.409c0.633,8.23,1.233,16.009,3.14,23.685c2.201,8.855,5.63,13.549,10.198,13.938
		c11.081,0.938,18.655-6.66,26.058-15.242c2.062-2.397,4.295-4.693,6.537-6.989c4.514-4.631,8.777-9.004,11.65-14.228
		c3.279-5.998,4.529-12.658,5.849-19.71c1.445-7.708,2.937-15.673,7.255-23.106l1.64-2.819
		c13.002-22.326,16.906-31.681,17.523-35.429c-21.24,1.124-33.664-7.075-38.24-15.313c-2.585-4.646-2.726-9.332-0.383-12.533
		c4.756-6.474,14.72-3.803,24.349-1.219c5.927,1.593,14.048,3.764,16.727,1.976c0.25-0.164,0.897-0.601,1.14-2.459
		c0.82-6.185,15.431-13.306,22.264-14.189c2.179-0.328,4.193,1.265,4.482,3.452c0.28,2.194-1.266,4.193-3.46,4.482
		c-5.567,0.718-14.392,6.029-15.547,7.942c-0.273,2.951-1.828,5.669-4.42,7.418c-5.693,3.811-14.221,1.531-23.256-0.897
		c-5.356-1.43-14.306-3.842-15.836-1.765c-0.188,0.296-0.289,1.897,1.141,4.271c3.678,6.099,14.063,12.182,32.211,10.745
		c2.538-0.195,4.623,0.812,5.834,2.749c3.326,5.303-0.961,16.188-17.617,44.792l-1.632,2.804
		c-3.632,6.255-4.936,13.213-6.317,20.576c-1.375,7.356-2.796,14.962-6.692,22.076c-3.397,6.185-8.246,11.159-12.939,15.969
		c-2.124,2.179-4.248,4.35-6.2,6.622C321.556,359.757,312.373,369.042,298.957,369.042z"/>
	<path style="fill:#116FFF;" d="M235.892,282.909c-0.039,0-0.078,0-0.117,0c-21.748-0.601-35.773-14.782-36.6-37.006
		c-0.188-5.154,0.07-10.089,0.772-14.681c0.328-2.187,2.358-3.694,4.553-3.35c2.179,0.328,3.686,2.374,3.35,4.553
		c-0.625,4.1-0.851,8.535-0.687,13.182c0.671,17.866,11.448,28.83,28.831,29.307c2.209,0.062,3.951,1.905,3.889,4.107
		C239.82,281.191,238.047,282.909,235.892,282.909z"/>
	<path style="fill:#116FFF;" d="M219.892,206.272c-1.156,0-2.304-0.5-3.092-1.46c-1.398-1.71-1.148-4.232,0.554-5.63
		c12.658-10.363,27.425-11.784,31.08-11.135c18.929,3.287,29.581,5.817,33.477,7.934c1.132,0.632,2.241,1.125,3.35,1.53
		c2.077,0.766,3.14,3.062,2.374,5.139c-0.757,2.077-3.061,3.131-5.13,2.374c-1.484-0.547-2.968-1.211-4.443-2.03
		c-1.68-0.914-7.973-3.069-31.033-7.075c-1.405-0.195-13.813,0.602-24.605,9.449C221.68,205.976,220.782,206.272,219.892,206.272z"
		/>
	<path style="fill:#116FFF;" d="M299.855,185.056c-0.438,0-0.875-0.07-1.312-0.219c-13.97-4.841-35.141-9.23-44.745-9.917
		c-1.429-0.18-3.74,0.32-6.028,0.734c-5.864,1.046-13.166,2.358-17.422-2.288c-3.928-4.373-3.225-11.002,1.858-17.781
		c12.932-17.023,31.915-24.544,50.274-31.813c6.294-2.491,12.799-5.068,18.866-7.973c0.749-1.109,2.343-4.076,3.334-7.473
		c0.617-2.116,2.835-3.311,4.959-2.726c2.116,0.617,3.334,2.843,2.718,4.959c-0.906,3.124-3.842,10.479-6.653,12.01
		c-6.708,3.265-13.604,5.998-20.28,8.637c-18.14,7.185-35.272,13.971-46.838,29.198c-2.054,2.741-3.521,6.248-2.319,7.59
		c1.258,1.367,6.786,0.383,10.089-0.211c2.913-0.516,5.693-1.031,8.02-0.843c10.089,0.726,32.251,5.302,46.783,10.339
		c2.093,0.726,3.193,2.998,2.476,5.091C303.057,184.017,301.511,185.056,299.855,185.056z"/>
	<path style="fill:#116FFF;" d="M148.471,361.748L147.073,358l-0.609-3.951l0.609,3.959l-3.576-1.749
		c1.694-4.225,10.237-40.966-3.366-69.391c-7.301-15.259-19.873-25.699-37.35-31.04c-2.108-0.648-3.303-2.882-2.655-4.998
		c0.648-2.108,2.882-3.279,4.99-2.655c40.294,12.315,49.704,46.143,50.508,72.358C155.976,331.84,153.562,359.843,148.471,361.748z"
		/>
	<path style="fill:#116FFF;" d="M227.896,355.954c-11.026,0-19.991-8.965-19.991-19.991c0-11.025,8.964-19.99,19.991-19.99
		c11.019,0,19.991,8.965,19.991,19.99C247.887,346.989,238.914,355.954,227.896,355.954z M227.896,323.969
		c-6.614,0-11.994,5.381-11.994,11.994c0,6.614,5.38,11.995,11.994,11.995s11.995-5.381,11.995-11.995
		C239.89,329.35,234.51,323.969,227.896,323.969z"/>
	<path style="fill:#116FFF;" d="M155.929,220.017c-11.026,0-19.991-8.965-19.991-19.991s8.965-19.991,19.991-19.991
		c11.019,0,19.991,8.964,19.991,19.991S166.947,220.017,155.929,220.017z M155.929,188.031c-6.614,0-11.995,5.38-11.995,11.994
		s5.38,11.995,11.995,11.995s11.994-5.38,11.994-11.995S162.543,188.031,155.929,188.031z"/>
	<path style="fill:#116FFF;" d="M275.874,259.998c-11.026,0-19.991-8.965-19.991-19.991s8.965-19.99,19.991-19.99
		c11.019,0,19.99,8.964,19.99,19.99C295.864,251.033,286.893,259.998,275.874,259.998z M275.874,228.013
		c-6.614,0-11.995,5.38-11.995,11.994s5.381,11.995,11.995,11.995s11.994-5.381,11.994-11.995
		C287.868,233.393,282.488,228.013,275.874,228.013z"/>
	<path style="fill:#116FFF;" d="M203.907,411.929c-0.297,0-0.601-0.031-0.898-0.102c-2.155-0.5-3.499-2.647-2.999-4.795
		c4.467-19.374,10.191-38.928,16.992-58.099c0.734-2.085,3.015-3.201,5.107-2.429c2.085,0.734,3.17,3.022,2.429,5.1
		c-6.7,18.89-12.338,38.146-16.735,57.224C207.374,410.679,205.726,411.929,203.907,411.929z"/>
	<path style="fill:#116FFF;" d="M232.3,324.594c-0.515,0-1.046-0.102-1.554-0.312c-2.03-0.859-2.983-3.21-2.124-5.24
		c9.745-23.091,21.271-46.049,34.258-68.234c1.116-1.905,3.561-2.538,5.466-1.429c1.905,1.116,2.546,3.568,1.438,5.474
		c-12.814,21.881-24.185,44.527-33.797,67.298C235.338,323.68,233.862,324.594,232.3,324.594z"/>
	<path style="fill:#116FFF;" d="M283.144,229.77c-0.749,0-1.515-0.211-2.194-0.656c-1.843-1.218-2.35-3.694-1.14-5.537
		c41.021-62.347,80.971-98.15,81.369-98.51c1.64-1.46,4.17-1.319,5.638,0.336c1.469,1.647,1.32,4.178-0.328,5.646
		c-0.391,0.344-39.599,35.516-80.002,96.917C285.721,229.137,284.448,229.77,283.144,229.77z"/>
	<path style="fill:#116FFF;" d="M140.139,201.462c-0.257,0-0.523-0.023-0.788-0.078c-10.886-2.179-21.639-3.991-31.938-5.396
		c-2.187-0.297-3.725-2.312-3.429-4.498c0.305-2.187,2.319-3.787,4.506-3.42c10.464,1.421,21.381,3.264,32.431,5.474
		c2.163,0.43,3.568,2.538,3.139,4.701C143.677,200.15,142.005,201.462,140.139,201.462z"/>
	<path style="fill:#116FFF;" d="M261.178,237.859c-0.492,0-1-0.094-1.484-0.289c-16.328-6.536-49.657-19.015-89.404-29.127
		c-2.14-0.547-3.436-2.718-2.889-4.857c0.539-2.147,2.709-3.451,4.865-2.889c40.185,10.229,73.889,22.841,90.404,29.455
		c2.046,0.82,3.046,3.147,2.226,5.193C264.262,236.907,262.763,237.859,261.178,237.859z"/>
</g>
<g>
</g>
<g>
</g>
<g>
</g>
<g>
</g>
<g>
</g>
<g>
</g>
<g>
</g>
<g>
</g>
<g>
</g>
<g>
</g>
<g>
</g>
<g>
</g>
<g>
</g>
<g>
</g>
<g>
</g>
</svg>
