<?xml version="1.0" encoding="utf-8"?>
<!-- Generator: Adobe Illustrator 16.0.0, SVG Export Plug-In . SVG Version: 6.00 Build 0)  -->
<!DOCTYPE svg PUBLIC "-//W3C//DTD SVG 1.1//EN" "http://www.w3.org/Graphics/SVG/1.1/DTD/svg11.dtd">
<svg version="1.1" id="Layer_1" xmlns="http://www.w3.org/2000/svg" xmlns:xlink="http://www.w3.org/1999/xlink" x="0px" y="0px"
	 width="36px" height="29px" viewBox="0 0 36 29" enable-background="new 0 0 36 29" xml:space="preserve">
<title>Group 12</title>
<desc>Created with Sketch.</desc>
<g id="v2">
	<g id="_x32_Teya-dashboard-Copy" transform="translate(-83.000000, -342.000000)">
		<g id="Group-4" transform="translate(61.000000, 226.000000)">
			<g id="Group-12" transform="translate(22.000000, 116.000000)">
				<g id="Group-9" transform="translate(0.000000, 5.890909)">
					<path id="Rectangle-9" fill="#EDEEEF" d="M1,0h34c0.553,0,1,0.448,1,1v20.254c0,0.552-0.447,1-1,1H1c-0.552,0-1-0.448-1-1V1
						C0,0.448,0.448,0,1,0z"/>
				</g>
				<g id="Group-8" transform="translate(1.309091, 0.000000)">
					<path id="Rectangle-9-Copy" fill="#EDEEEF" d="M1,2h32.037l0,0c0.553,0,1,0.448,1,1v0.834l0,0c0,0.552-0.447,1-1,1H1l0,0
						c-0.552,0-1-0.448-1-1V3l0,0C0,2.448,0.448,2,1,2z"/>
					<path id="Rectangle-9-Copy-2" fill="#EDEEEF" d="M1,0h11.392l0,0c0.552,0,1,0.448,1,1v2.447l0,0c0,0.552-0.448,1-1,1H1l0,0
						c-0.552,0-1-0.448-1-1V1l0,0C0,0.448,0.448,0,1,0z"/>
					<polyline id="Path-3" fill="#EDEEEF" points="34.011,4.83 34.011,4 0,4 0,4.834 					"/>
				</g>
			</g>
		</g>
	</g>
</g>
</svg>
