<?xml version="1.0" encoding="iso-8859-1"?>
<!-- Generator: Adobe Illustrator 19.0.0, SVG Export Plug-In . SVG Version: 6.00 Build 0)  -->
<svg version="1.1" id="Capa_1" xmlns="http://www.w3.org/2000/svg" xmlns:xlink="http://www.w3.org/1999/xlink" x="0px" y="0px"
	 viewBox="0 0 511.766 511.766" style="enable-background:new 0 0 511.766 511.766;" xml:space="preserve">
<path style="fill:#94C1FF;" d="M507.768,91.958v-7.997c0-4.396-3.6-7.996-7.996-7.996H11.994c-4.396,0-7.996,3.6-7.996,7.996v7.997
	H507.768z"/>
<rect x="3.998" y="91.963" style="fill:#D7E9FF;" width="503.77" height="343.84"/>
<g>
	<circle style="fill:#94C1FF;" cx="379.823" cy="347.963" r="19.991"/>
	<circle style="fill:#94C1FF;" cx="379.823" cy="299.863" r="19.991"/>
	<circle style="fill:#94C1FF;" cx="379.823" cy="395.823" r="19.991"/>
</g>
<rect x="27.983" y="219.904" style="fill:#FFFFFF;" width="455.79" height="39.981"/>
<rect x="27.983" y="115.943" style="fill:#94C1FF;" width="455.79" height="79.964"/>
<rect x="3.998" y="91.963" style="fill:#FFFFFF;" width="7.996" height="343.84"/>
<rect x="499.773" y="91.963" style="fill:#94C1FF;" width="7.996" height="343.84"/>
<rect x="27.983" y="115.943" style="fill:#D7E9FF;" width="7.996" height="79.964"/>
<rect x="475.783" y="115.943" style="fill:#5C9EFF;" width="7.996" height="79.964"/>
<g>
	<rect x="475.783" y="219.904" style="fill:#D7E9FF;" width="7.996" height="39.981"/>
	<rect x="27.983" y="219.904" style="fill:#D7E9FF;" width="7.996" height="39.981"/>
</g>
<g>
	<path style="fill:#116FFF;" d="M236.13,303.861c-2.206,0-4.037-1.788-4.037-3.998s1.749-3.998,3.959-3.998h0.078
		c2.21,0,3.999,1.788,3.999,3.998S238.34,303.861,236.13,303.861z"/>
	<path style="fill:#116FFF;" d="M20.229,87.96c-2.206,0-4.037-1.789-4.037-3.999c0-2.209,1.749-3.998,3.959-3.998h0.078
		c2.21,0,3.998,1.789,3.998,3.998C24.227,86.171,22.439,87.96,20.229,87.96z"/>
	<path style="fill:#116FFF;" d="M36.222,87.96c-2.206,0-4.037-1.789-4.037-3.999c0-2.209,1.749-3.998,3.959-3.998h0.078
		c2.21,0,3.998,1.789,3.998,3.998C40.22,86.171,38.432,87.96,36.222,87.96z"/>
	<path style="fill:#116FFF;" d="M52.215,87.96c-2.206,0-4.037-1.789-4.037-3.999c0-2.209,1.749-3.998,3.959-3.998h0.078
		c2.21,0,3.998,1.789,3.998,3.998C56.213,86.171,54.425,87.96,52.215,87.96z"/>
	<path style="fill:#116FFF;" d="M507.768,439.799H3.998c-2.21,0-3.998-1.789-3.998-3.998V91.958c0-2.209,1.788-3.998,3.998-3.998
		h503.77c2.21,0,3.998,1.789,3.998,3.998v343.843C511.766,438.01,509.978,439.799,507.768,439.799z M7.996,431.802h495.773V95.956
		H7.996V431.802z"/>
	<path style="fill:#116FFF;" d="M507.768,95.956H3.998C1.788,95.956,0,94.167,0,91.957V83.96c0-6.614,5.38-11.994,11.994-11.994
		h487.777c6.613,0,11.994,5.38,11.994,11.994v7.997C511.766,94.168,509.978,95.956,507.768,95.956z M7.996,87.96h495.773v-3.999
		c0-2.202-1.796-3.998-3.998-3.998H11.994c-2.206,0-3.998,1.796-3.998,3.998V87.96z"/>
	<path style="fill:#116FFF;" d="M483.779,199.908H27.987c-2.21,0-3.998-1.788-3.998-3.998v-79.964c0-2.209,1.788-3.998,3.998-3.998
		h455.791c2.21,0,3.998,1.789,3.998,3.998v79.964C487.777,198.12,485.988,199.908,483.779,199.908z M31.986,191.913h447.795v-71.967
		H31.986V191.913z"/>
	<path style="fill:#116FFF;" d="M419.808,151.93H91.958c-2.21,0-3.998-1.789-3.998-3.998c0-2.21,1.788-3.999,3.998-3.999h327.85
		c2.21,0,3.998,1.789,3.998,3.999C423.806,150.143,422.018,151.93,419.808,151.93z"/>
	<path style="fill:#116FFF;" d="M339.845,167.923H171.922c-2.21,0-3.999-1.788-3.999-3.998s1.789-3.998,3.999-3.998h167.923
		c2.21,0,3.998,1.788,3.998,3.998S342.055,167.923,339.845,167.923z"/>
	<path style="fill:#116FFF;" d="M483.779,263.879H27.987c-2.21,0-3.998-1.788-3.998-3.998v-39.981c0-2.21,1.788-3.999,3.998-3.999
		h455.791c2.21,0,3.998,1.789,3.998,3.999v39.981C487.777,262.091,485.988,263.879,483.779,263.879z M31.986,255.883h447.795
		v-31.985H31.986V255.883z"/>
	<path style="fill:#116FFF;" d="M51.976,255.883c-1.663,0-3.217-1.047-3.783-2.71l-7.997-23.489
		c-0.714-2.093,0.406-4.365,2.495-5.076c2.089-0.679,4.361,0.414,5.072,2.499l7.997,23.489c0.714,2.093-0.406,4.365-2.495,5.076
		C52.839,255.813,52.402,255.883,51.976,255.883z"/>
	<path style="fill:#116FFF;" d="M51.972,255.883c-0.601,0-1.21-0.133-1.784-0.422c-1.976-0.992-2.776-3.389-1.789-5.365
		l7.997-15.993c0.992-1.968,3.397-2.788,5.365-1.788c1.976,0.991,2.776,3.389,1.788,5.364l-7.996,15.994
		C54.85,255.072,53.441,255.883,51.972,255.883z"/>
	<path style="fill:#116FFF;" d="M67.973,255.883c-1.468,0-2.877-0.812-3.58-2.21l-7.997-15.993
		c-0.988-1.976-0.188-4.373,1.789-5.364c1.972-1,4.377-0.18,5.364,1.788l7.997,15.993c0.988,1.976,0.187,4.373-1.789,5.365
		C69.183,255.751,68.574,255.883,67.973,255.883z"/>
	<path style="fill:#116FFF;" d="M67.969,255.883c-0.418,0-0.843-0.062-1.265-0.203c-2.093-0.703-3.226-2.968-2.526-5.061
		l7.996-23.989c0.695-2.085,2.944-3.233,5.057-2.53c2.093,0.702,3.225,2.967,2.526,5.06l-7.997,23.989
		C71.202,254.822,69.644,255.883,67.969,255.883z"/>
	<path style="fill:#116FFF;" d="M91.958,255.883c-1.663,0-3.218-1.047-3.783-2.71l-7.997-23.489
		c-0.714-2.093,0.406-4.365,2.495-5.076c2.104-0.679,4.361,0.414,5.072,2.499l7.996,23.489c0.715,2.093-0.406,4.365-2.495,5.076
		C92.821,255.813,92.384,255.883,91.958,255.883z"/>
	<path style="fill:#116FFF;" d="M91.954,255.883c-0.602,0-1.21-0.133-1.784-0.422c-1.976-0.992-2.776-3.389-1.789-5.365
		l7.997-15.993c0.987-1.968,3.389-2.788,5.364-1.788c1.976,0.991,2.776,3.389,1.789,5.364l-7.997,15.993
		C94.832,255.072,93.422,255.883,91.954,255.883z"/>
	<path style="fill:#116FFF;" d="M107.954,255.883c-1.468,0-2.877-0.812-3.58-2.21l-7.996-15.993
		c-0.988-1.976-0.188-4.373,1.788-5.364c1.979-1,4.373-0.18,5.365,1.788l7.997,15.993c0.987,1.976,0.187,4.373-1.789,5.365
		C109.165,255.751,108.556,255.883,107.954,255.883z"/>
	<path style="fill:#116FFF;" d="M107.95,255.883c-0.417,0-0.843-0.062-1.265-0.203c-2.093-0.703-3.225-2.968-2.526-5.061
		l7.997-23.989c0.695-2.085,2.94-3.233,5.056-2.53c2.093,0.702,3.225,2.967,2.526,5.06l-7.997,23.989
		C111.184,254.822,109.626,255.883,107.95,255.883z"/>
	<path style="fill:#116FFF;" d="M131.94,255.883c-1.663,0-3.217-1.047-3.783-2.71l-7.996-23.489
		c-0.715-2.093,0.406-4.365,2.495-5.076c2.097-0.679,4.361,0.414,5.072,2.499l7.996,23.489c0.715,2.093-0.406,4.365-2.495,5.076
		C132.803,255.813,132.365,255.883,131.94,255.883z"/>
	<path style="fill:#116FFF;" d="M131.936,255.883c-0.601,0-1.21-0.133-1.784-0.422c-1.976-0.992-2.776-3.389-1.788-5.365
		l7.996-15.993c0.992-1.968,3.385-2.788,5.365-1.788c1.976,0.991,2.776,3.389,1.789,5.364l-7.997,15.993
		C134.814,255.072,133.404,255.883,131.936,255.883z"/>
	<path style="fill:#116FFF;" d="M147.937,255.883c-1.469,0-2.878-0.812-3.581-2.21l-7.996-15.993
		c-0.988-1.976-0.188-4.373,1.788-5.364c1.972-1,4.369-0.18,5.365,1.788l7.996,15.993c0.988,1.976,0.188,4.373-1.788,5.365
		C149.147,255.751,148.537,255.883,147.937,255.883z"/>
	<path style="fill:#116FFF;" d="M147.933,255.883c-0.418,0-0.844-0.062-1.266-0.203c-2.093-0.703-3.225-2.968-2.526-5.061
		l7.997-23.989c0.698-2.085,2.936-3.233,5.056-2.53c2.093,0.702,3.226,2.967,2.526,5.06l-7.996,23.989
		C151.165,254.822,149.608,255.883,147.933,255.883z"/>
	<path style="fill:#116FFF;" d="M451.793,247.887c-6.614,0-11.994-5.38-11.994-11.995s5.38-11.994,11.994-11.994
		s11.994,5.38,11.994,11.994S458.407,247.887,451.793,247.887z M451.793,231.895c-2.202,0-3.998,1.796-3.998,3.998
		s1.796,3.998,3.998,3.998s3.998-1.796,3.998-3.998S453.995,231.895,451.793,231.895z"/>
	<path style="fill:#116FFF;" d="M467.786,255.883c-1.023,0-2.046-0.391-2.827-1.172l-10.354-10.354
		c-1.562-1.562-1.562-4.092,0-5.653c1.562-1.562,4.092-1.562,5.653,0l10.355,10.354c1.562,1.562,1.562,4.092,0,5.653
		C469.832,255.492,468.809,255.883,467.786,255.883z"/>
	<path style="fill:#116FFF;" d="M219.9,303.861H27.987c-2.21,0-3.998-1.788-3.998-3.998s1.788-3.998,3.998-3.998h191.912
		c2.21,0,3.998,1.788,3.998,3.998S222.11,303.861,219.9,303.861z"/>
	<path style="fill:#116FFF;" d="M483.779,303.861h-55.974c-2.211,0-3.999-1.788-3.999-3.998s1.788-3.998,3.999-3.998h55.974
		c2.21,0,3.998,1.788,3.998,3.998S485.988,303.861,483.779,303.861z"/>
	<path style="fill:#116FFF;" d="M379.826,311.858c-1.023,0-2.046-0.391-2.827-1.172l-7.996-7.996c-1.562-1.562-1.562-4.092,0-5.654
		c1.562-1.562,4.092-1.562,5.653,0l7.996,7.997c1.562,1.562,1.562,4.092,0,5.653C381.872,311.467,380.85,311.858,379.826,311.858z"
		/>
	<path style="fill:#116FFF;" d="M379.826,311.858c-1.023,0-2.046-0.391-2.827-1.172c-1.562-1.562-1.562-4.092,0-5.653l15.993-15.993
		c1.562-1.562,4.092-1.562,5.653,0c1.562,1.562,1.562,4.092,0,5.654l-15.993,15.992C381.872,311.467,380.85,311.858,379.826,311.858
		z"/>
	<path style="fill:#116FFF;" d="M267.877,303.861h-15.992c-2.21,0-3.998-1.788-3.998-3.998s1.788-3.998,3.998-3.998h15.992
		c2.21,0,3.998,1.788,3.998,3.998S270.087,303.861,267.877,303.861z"/>
	<path style="fill:#116FFF;" d="M244.127,399.817c-2.206,0-4.037-1.788-4.037-3.998s1.749-3.998,3.959-3.998h0.078
		c2.21,0,3.999,1.788,3.999,3.998S246.337,399.817,244.127,399.817z"/>
	<path style="fill:#116FFF;" d="M227.896,399.817H27.987c-2.21,0-3.998-1.788-3.998-3.998s1.788-3.998,3.998-3.998h199.908
		c2.21,0,3.998,1.788,3.998,3.998S230.106,399.817,227.896,399.817z"/>
	<path style="fill:#116FFF;" d="M483.779,399.817h-55.974c-2.211,0-3.999-1.788-3.999-3.998s1.788-3.998,3.999-3.998h55.974
		c2.21,0,3.998,1.788,3.998,3.998S485.988,399.817,483.779,399.817z"/>
	<path style="fill:#116FFF;" d="M379.826,407.813c-1.023,0-2.046-0.39-2.827-1.171l-7.996-7.996c-1.562-1.562-1.562-4.092,0-5.653
		c1.562-1.562,4.092-1.562,5.653,0l7.996,7.996c1.562,1.562,1.562,4.092,0,5.653C381.872,407.423,380.85,407.813,379.826,407.813z"
		/>
	<path style="fill:#116FFF;" d="M379.826,407.813c-1.023,0-2.046-0.39-2.827-1.171c-1.562-1.562-1.562-4.092,0-5.653l15.993-15.993
		c1.562-1.562,4.092-1.562,5.653,0s1.562,4.092,0,5.653l-15.993,15.993C381.872,407.423,380.85,407.813,379.826,407.813z"/>
	<path style="fill:#116FFF;" d="M275.874,399.817h-15.993c-2.21,0-3.998-1.788-3.998-3.998s1.788-3.998,3.998-3.998h15.993
		c2.21,0,3.998,1.788,3.998,3.998S278.084,399.817,275.874,399.817z"/>
	<path style="fill:#116FFF;" d="M276.115,351.839c-2.209,0-4.037-1.788-4.037-3.998s1.75-3.999,3.951-3.999h0.086
		c2.203,0,3.999,1.789,3.999,3.999S278.319,351.839,276.115,351.839z"/>
	<path style="fill:#116FFF;" d="M259.881,351.839H27.987c-2.21,0-3.998-1.788-3.998-3.998s1.788-3.999,3.998-3.999h231.894
		c2.21,0,3.998,1.789,3.998,3.999S262.091,351.839,259.881,351.839z"/>
	<path style="fill:#116FFF;" d="M483.779,351.839h-55.974c-2.211,0-3.999-1.788-3.999-3.998s1.788-3.999,3.999-3.999h55.974
		c2.21,0,3.998,1.789,3.998,3.999S485.988,351.839,483.779,351.839z"/>
	<path style="fill:#116FFF;" d="M371.83,359.835c-1.023,0-2.046-0.391-2.827-1.171c-1.562-1.562-1.562-4.092,0-5.654l15.993-15.992
		c1.562-1.562,4.092-1.562,5.653,0c1.562,1.562,1.562,4.092,0,5.653l-15.993,15.993C373.876,359.445,372.853,359.835,371.83,359.835
		z"/>
	<path style="fill:#116FFF;" d="M387.83,359.835c-1.022,0-2.046-0.391-2.826-1.171l-15.993-15.993c-1.562-1.562-1.562-4.092,0-5.653
		c1.562-1.562,4.092-1.562,5.653,0l15.993,15.992c1.562,1.562,1.562,4.092,0,5.654C389.876,359.445,388.854,359.835,387.83,359.835z
		"/>
	<path style="fill:#116FFF;" d="M307.86,351.839h-15.993c-2.21,0-3.998-1.788-3.998-3.998s1.788-3.999,3.998-3.999h15.993
		c2.21,0,3.998,1.789,3.998,3.999S310.07,351.839,307.86,351.839z"/>
</g>
<g>
</g>
<g>
</g>
<g>
</g>
<g>
</g>
<g>
</g>
<g>
</g>
<g>
</g>
<g>
</g>
<g>
</g>
<g>
</g>
<g>
</g>
<g>
</g>
<g>
</g>
<g>
</g>
<g>
</g>
</svg>
