<?xml version="1.0" encoding="iso-8859-1"?>
<!-- Generator: Adobe Illustrator 19.0.0, SVG Export Plug-In . SVG Version: 6.00 Build 0)  -->
<svg version="1.1" id="Capa_1" xmlns="http://www.w3.org/2000/svg" xmlns:xlink="http://www.w3.org/1999/xlink" x="0px" y="0px"
	 viewBox="0 0 511.942 511.942" style="enable-background:new 0 0 511.942 511.942;" xml:space="preserve">
<path style="fill:#656D78;" d="M395.954,475.946c0,17.6-14.396,31.997-31.996,31.997H147.984c-17.6,0-31.997-14.397-31.997-31.997
	V51.994c0-17.6,14.397-31.996,31.997-31.996h215.975c17.6,0,31.996,14.396,31.996,31.996v423.952H395.954z"/>
<path style="fill:#5C9EFF;" d="M395.954,475.946c0,17.6-14.396,31.997-31.996,31.997H147.984c-17.6,0-31.997-14.397-31.997-31.997
	V51.994c0-17.6,14.397-31.996,31.997-31.996h215.975c17.6,0,31.996,14.396,31.996,31.996v423.952H395.954z"/>
<path style="fill:#94C1FF;" d="M131.985,475.946V51.994c0-17.6,14.397-31.996,31.997-31.996h-15.998
	c-17.6,0-31.997,14.396-31.997,31.996v423.951c0,17.6,14.397,31.997,31.997,31.997h15.998
	C146.382,507.943,131.985,493.545,131.985,475.946z"/>
<path style="fill:#2287FF;" d="M380.816,475.946V51.994c0-17.6-14.396-31.996-31.996-31.996h15.998
	c17.6,0,31.996,14.396,31.996,31.996v423.951c0,17.6-14.396,31.997-31.996,31.997H348.82
	C366.419,507.943,380.816,493.545,380.816,475.946z"/>
<path style="fill:#94C1FF;" d="M395.954,459.948c0,17.6-14.396,31.996-31.996,31.996H147.984c-17.6,0-31.997-14.396-31.997-31.996
	V35.996c0-17.6,14.397-31.996,31.997-31.996h215.975c17.6,0,31.996,14.396,31.996,31.996v423.952H395.954z"/>
<path style="fill:#D7E9FF;" d="M131.985,459.948V35.996c0-17.6,14.397-31.996,31.997-31.996h-15.998
	c-17.6,0-31.997,14.396-31.997,31.996v423.951c0,17.6,14.397,31.996,31.997,31.996h15.998
	C146.382,491.944,131.985,477.547,131.985,459.948z"/>
<path style="fill:#5C9EFF;" d="M380.816,459.948V35.996C380.816,18.396,366.42,4,348.82,4h15.998
	c17.6,0,31.996,14.396,31.996,31.996v423.951c0,17.6-14.396,31.996-31.996,31.996H348.82
	C366.419,491.944,380.816,477.547,380.816,459.948z"/>
<rect x="115.991" y="35.991" style="fill:#D7E9FF;" width="279.97" height="383.96"/>
<g>
	<polygon style="fill:#FFFFFF;" points="163.122,419.952 212.812,419.952 315.691,35.996 266.001,35.996 	"/>
	<polygon style="fill:#FFFFFF;" points="245.941,419.952 348.82,35.996 332.251,35.996 229.372,419.952 	"/>
</g>
<circle style="fill:#D7E9FF;" cx="255.971" cy="455.951" r="19.996"/>
<g style="opacity:0.5;">
	<path style="fill:#FFFFFF;" d="M243.976,455.949c0-9.671,6.87-17.74,15.994-19.592c-1.292-0.266-2.628-0.406-3.999-0.406
		c-11.042,0-19.994,8.952-19.994,19.998s8.952,19.997,19.994,19.997c1.371,0,2.707-0.141,3.999-0.406
		C250.846,473.681,243.976,465.619,243.976,455.949z"/>
</g>
<path style="fill:#94C1FF;" d="M267.97,455.949c0,9.671-6.871,17.732-15.995,19.591c1.292,0.266,2.628,0.406,4,0.406
	c11.042,0,19.994-8.951,19.994-19.997s-8.952-19.998-19.994-19.998c-1.371,0-2.707,0.141-4,0.406
	C261.099,438.208,267.97,446.278,267.97,455.949z"/>
<g>
	<path style="fill:#116FFF;" d="M364.193,23.998c-2.203,0-4.03-1.789-4.03-4s1.749-4,3.952-4h0.078c2.219,0,4,1.789,4,4
		S366.411,23.998,364.193,23.998z"/>
	<path style="fill:#116FFF;" d="M348.195,23.998c-2.203,0-4.03-1.789-4.03-4s1.749-4,3.952-4h0.078c2.219,0,4,1.789,4,4
		S350.413,23.998,348.195,23.998z"/>
	<path style="fill:#116FFF;" d="M363.958,495.944H147.984c-19.85,0-35.996-16.146-35.996-35.996V35.996
		C111.988,16.146,128.134,0,147.984,0h215.975c19.85,0,35.996,16.146,35.996,35.996v423.951
		C399.954,479.797,383.808,495.944,363.958,495.944z M147.984,7.999c-15.436,0-27.997,12.562-27.997,27.997v423.951
		c0,15.436,12.561,27.997,27.997,27.997h215.975c15.436,0,27.997-12.562,27.997-27.997V35.996c0-15.436-12.562-27.997-27.997-27.997
		C363.959,7.999,147.984,7.999,147.984,7.999z"/>
	<path style="fill:#116FFF;" d="M363.958,511.942H147.984c-19.85,0-35.996-16.146-35.996-35.996c0-2.21,1.789-3.999,4-3.999
		s4,1.789,4,3.999c0,15.437,12.561,27.997,27.997,27.997H363.96c15.436,0,27.997-12.561,27.997-27.997
		c0-2.21,1.789-3.999,3.999-3.999c2.211,0,4,1.789,4,3.999C399.954,495.795,383.808,511.942,363.958,511.942z"/>
	<path style="fill:#116FFF;" d="M395.954,479.946c-2.21,0-3.999-1.789-3.999-4v-15.998c0-2.211,1.789-3.999,3.999-3.999
		c2.211,0,4,1.788,4,3.999v15.998C399.954,478.157,398.165,479.946,395.954,479.946z"/>
	<path style="fill:#116FFF;" d="M115.987,479.946c-2.21,0-4-1.789-4-4v-15.998c0-2.211,1.789-3.999,4-3.999s4,1.788,4,3.999v15.998
		C119.987,478.157,118.198,479.946,115.987,479.946z"/>
	<path style="fill:#116FFF;" d="M387.956,39.996h-263.97c-2.21,0-4-1.789-4-4s1.789-4,4-4h263.97c2.21,0,3.999,1.789,3.999,4
		S390.166,39.996,387.956,39.996z"/>
	<path style="fill:#116FFF;" d="M387.956,423.951h-263.97c-2.21,0-4-1.788-4-3.999s1.789-3.999,4-3.999h263.97
		c2.21,0,3.999,1.788,3.999,3.999S390.166,423.951,387.956,423.951z"/>
	<path style="fill:#116FFF;" d="M255.975,479.946c-13.233,0-23.997-10.765-23.997-23.997c0-13.233,10.764-23.997,23.997-23.997
		c13.229,0,23.993,10.764,23.993,23.997C279.968,469.181,269.204,479.946,255.975,479.946z M255.975,439.95
		c-8.823,0-15.998,7.171-15.998,15.998s7.175,15.998,15.998,15.998s15.994-7.171,15.994-15.998S264.798,439.95,255.975,439.95z"/>
	<path style="fill:#116FFF;" d="M283.968,23.998h-55.994c-2.21,0-3.999-1.789-3.999-4s1.789-4,3.999-4h55.994
		c2.211,0,3.999,1.789,3.999,4S286.179,23.998,283.968,23.998z"/>
	<path style="fill:#116FFF;" d="M399.954,95.99c-2.211,0-4-1.789-4-4V75.992c0-2.21,1.789-3.999,4-3.999s4,1.789,4,3.999v15.999
		C403.954,94.2,402.165,95.99,399.954,95.99z"/>
	<path style="fill:#116FFF;" d="M111.988,103.989c-2.211,0-4-1.789-4-4V83.991c0-2.21,1.789-4,4-4c2.21,0,4,1.789,4,4v15.998
		C115.987,102.2,114.198,103.989,111.988,103.989z"/>
	<path style="fill:#116FFF;" d="M399.954,167.981c-2.211,0-4-1.789-4-4v-47.994c0-2.211,1.789-4,4-4s4,1.789,4,4v47.994
		C403.954,166.193,402.165,167.981,399.954,167.981z"/>
</g>
<g>
</g>
<g>
</g>
<g>
</g>
<g>
</g>
<g>
</g>
<g>
</g>
<g>
</g>
<g>
</g>
<g>
</g>
<g>
</g>
<g>
</g>
<g>
</g>
<g>
</g>
<g>
</g>
<g>
</g>
</svg>
