<?xml version="1.0" encoding="iso-8859-1"?>
<!-- Generator: Adobe Illustrator 19.0.0, SVG Export Plug-In . SVG Version: 6.00 Build 0)  -->
<svg version="1.1" id="Capa_1" xmlns="http://www.w3.org/2000/svg" xmlns:xlink="http://www.w3.org/1999/xlink" x="0px" y="0px"
	 viewBox="0 0 511.861 511.861" style="enable-background:new 0 0 511.861 511.861;" xml:space="preserve">
<g>
	<polygon style="fill:#94C1FF;" points="425.572,66.204 425.572,43.59 465.148,3.998 470.801,20.975 	"/>
	<polygon style="fill:#94C1FF;" points="448.187,66.204 425.572,66.204 470.801,20.975 487.778,26.62 	"/>
</g>
<path id="SVGCleanerId_0" style="fill:#2287FF;" d="M415.889,275.967h-195.91c-2.21,0-3.998-1.796-3.998-3.998
	c0-2.218,1.788-3.998,3.998-3.998h195.91c2.21,0,3.998,1.78,3.998,3.998C419.887,274.172,418.099,275.967,415.889,275.967z"/>
<path style="fill:#FFFFFF;" d="M415.889,271.97c0,108.279-87.632,195.91-195.906,195.91c-108.278,0-195.91-87.631-195.91-195.91
	c0-108.282,87.632-195.914,195.91-195.914C328.257,76.055,415.889,163.688,415.889,271.97z"/>
<path style="fill:#2287FF;" d="M215.981,271.97c0,2.202,1.788,3.998,3.998,3.998h123.74c0.047-1.343,0.203-2.654,0.203-3.998
	c0-1.358-0.156-2.662-0.203-3.998h-123.74C217.769,267.971,215.981,269.752,215.981,271.97z"/>
<path style="fill:#5C9EFF;" d="M92.877,421.035c0,0-20.827,63.783-20.827,74.825s0.969,12.011,11.995,11.995
	c20.006,0.016,71.549-50.812,71.549-50.812L92.877,421.035z"/>
<path style="fill:#2287FF;" d="M137.559,458.54c-16.02,14.696-47.025,41.333-61.511,41.317c-1.491,0-2.768-0.023-3.912-0.078
	c0.367,7.332,2.374,8.09,11.909,8.074c15.645,0.008,50.59-31.08,65.072-44.629L137.559,458.54z"/>
<path style="fill:#5C9EFF;" d="M347.092,421.035c0,0,20.827,63.783,20.827,74.825s-0.969,12.011-11.995,11.995
	c-20.007,0.016-71.545-50.812-71.545-50.812L347.092,421.035z"/>
<path style="fill:#94C1FF;" d="M302.433,458.518c16.009,14.688,47.041,41.356,61.535,41.341c1.491,0,2.764-0.023,3.912-0.078
	c-0.367,7.332-2.374,8.09-11.909,8.074c-15.673,0.016-50.68-31.158-65.126-44.675L302.433,458.518z"/>
<path style="fill:#2287FF;" d="M343.36,434.365c6.075,19.272,16.562,53.647,16.562,61.495c0,8.52-0.632,11.019-5.95,11.722
	c0.648,0.094,1.359,0.273,1.952,0.273c11.026,0.016,11.995-0.953,11.995-11.995c0.008-8.574-12.549-48.938-18.164-66.563
	L343.36,434.365z"/>
<path style="fill:#94C1FF;" d="M80.047,495.859c0-7.848,10.483-42.223,16.559-61.495l-6.396-5.045
	c-5.615,17.633-18.16,57.974-18.16,66.54c0,11.042,0.969,12.011,11.995,11.995c0.597,0,1.308-0.18,1.957-0.273
	C80.679,506.878,80.047,504.379,80.047,495.859z"/>
<g>
	<path style="fill:#2287FF;" d="M347.092,421.035l-62.713,36.008c0,0,2.499,2.459,6.474,6.184
		c21.6-7.996,41.473-19.529,58.902-33.922C348.155,424.29,347.092,421.035,347.092,421.035z"/>
	<path style="fill:#2287FF;" d="M90.218,429.312c17.429,14.393,37.299,25.918,58.895,33.914c3.975-3.725,6.481-6.184,6.481-6.184
		l-62.717-36.008C92.877,421.035,91.815,424.29,90.218,429.312z"/>
</g>
<path style="fill:#5C9EFF;" d="M379.906,271.97c0,88.382-71.537,159.927-159.923,159.927c-88.39,0-159.927-71.545-159.927-159.927
	c0-88.393,71.537-159.931,159.927-159.931C308.368,112.038,379.906,183.576,379.906,271.97z"/>
<path style="fill:#94C1FF;" d="M68.052,271.97c0-87.042,69.41-157.588,155.929-159.728c-1.343-0.035-2.647-0.203-3.998-0.203
	c-88.39,0-159.927,71.538-159.927,159.931c0,88.382,71.537,159.927,159.927,159.927c1.351,0,2.655-0.171,3.998-0.202
	C137.462,429.553,68.052,359.009,68.052,271.97z"/>
<g>
	<path style="fill:#FFFFFF;" d="M343.922,271.97c0,68.5-55.443,123.943-123.939,123.943c-68.5,0-123.943-55.443-123.943-123.943
		c0-68.504,55.443-123.947,123.943-123.947C288.479,148.022,343.922,203.465,343.922,271.97z"/>
	<path style="fill:#FFFFFF;" d="M104.035,271.97c0-67.152,53.315-121.62,119.945-123.744c-1.339-0.043-2.647-0.203-3.998-0.203
		c-68.5,0-123.943,55.443-123.943,123.947c0,68.5,55.443,123.943,123.943,123.943c1.351,0,2.659-0.164,3.998-0.203
		C157.351,393.586,104.035,339.112,104.035,271.97z"/>
</g>
<path style="fill:#5C9EFF;" d="M307.939,271.97c0,48.604-39.35,87.96-87.956,87.96c-48.61,0-87.96-39.356-87.96-87.96
	c0-48.614,39.35-87.963,87.96-87.963C268.589,184.007,307.939,223.355,307.939,271.97z"/>
<path style="fill:#94C1FF;" d="M140.019,271.97c0-47.263,37.222-85.659,83.962-87.76c-1.335-0.062-2.647-0.203-3.998-0.203
	c-48.61,0-87.96,39.349-87.96,87.963c0,48.604,39.35,87.96,87.96,87.96c1.351,0,2.663-0.141,3.998-0.203
	C177.241,357.618,140.019,319.23,140.019,271.97z"/>
<g>
	<path style="fill:#FFFFFF;" d="M271.954,271.97c0,28.722-23.25,51.977-51.972,51.977s-51.977-23.255-51.977-51.977
		c0-28.725,23.255-51.979,51.977-51.979S271.954,243.244,271.954,271.97z"/>
	<path style="fill:#FFFFFF;" d="M176.003,271.97c0-27.374,21.135-49.734,47.978-51.776c-1.323-0.102-2.647-0.203-3.998-0.203
		c-28.722,0-51.977,23.255-51.977,51.979c0,28.722,23.255,51.977,51.977,51.977c1.351,0,2.675-0.109,3.998-0.203
		C197.138,321.698,176.003,299.333,176.003,271.97z"/>
</g>
<path style="fill:#5C9EFF;" d="M235.975,271.97c0,8.824-7.161,15.993-15.993,15.993s-15.993-7.169-15.993-15.993
	c0-8.836,7.161-15.996,15.993-15.996S235.975,263.134,235.975,271.97z"/>
<path style="fill:#94C1FF;" d="M211.987,271.97c0-7.449,5.106-13.646,11.994-15.43c-1.285-0.332-2.608-0.566-3.998-0.566
	c-8.832,0-15.993,7.16-15.993,15.996c0,8.824,7.161,15.993,15.993,15.993c1.39,0,2.713-0.234,3.998-0.57
	C217.093,285.605,211.987,279.405,211.987,271.97z"/>
<g>
	<path style="fill:#2287FF;" d="M371.909,271.97c0-87.042-69.414-157.588-155.929-159.728c1.343-0.035,2.647-0.203,3.998-0.203
		c88.39,0,159.927,71.538,159.927,159.931c0,88.382-71.537,159.927-159.927,159.927c-1.351,0-2.655-0.171-3.998-0.202
		C302.495,429.553,371.909,359.009,371.909,271.97z"/>
	<path style="fill:#2287FF;" d="M299.943,271.97c0-47.263-37.222-85.659-83.962-87.76c1.335-0.062,2.647-0.203,3.998-0.203
		c48.61,0,87.96,39.349,87.96,87.963c0,48.604-39.35,87.96-87.96,87.96c-1.351,0-2.663-0.141-3.998-0.203
		C262.721,357.618,299.943,319.23,299.943,271.97z"/>
	<path style="fill:#2287FF;" d="M227.975,271.97c0-7.449-5.107-13.646-11.994-15.43c1.284-0.332,2.608-0.566,3.998-0.566
		c8.832,0,15.993,7.16,15.993,15.996c0,8.824-7.161,15.993-15.993,15.993c-1.39,0-2.714-0.234-3.998-0.57
		C222.868,285.605,227.975,279.405,227.975,271.97z"/>
</g>
<g>
	<path id="SVGCleanerId_0_1_" style="fill:#2287FF;" d="M415.889,275.967h-195.91c-2.21,0-3.998-1.796-3.998-3.998
		c0-2.218,1.788-3.998,3.998-3.998h195.91c2.21,0,3.998,1.78,3.998,3.998C419.887,274.172,418.099,275.967,415.889,275.967z"/>
</g>
<g>
	<path style="fill:#D7E9FF;" d="M415.889,267.971h-36.187c0.039,1.344,0.203,2.64,0.203,3.998c0,1.344-0.164,2.655-0.203,3.998
		h36.187c2.21,0,3.998-1.796,3.998-3.998C419.887,269.752,418.099,267.971,415.889,267.971z"/>
	<path style="fill:#D7E9FF;" d="M341.22,267.971h-35.983c0.062,1.336,0.203,2.655,0.203,4.006c0,1.352-0.141,2.655-0.195,3.99
		h35.983c0.039-1.343,0.195-2.639,0.195-3.99S341.267,269.316,341.22,267.971z"/>
	<path style="fill:#D7E9FF;" d="M271.751,267.971h-36.342c0.332,1.281,0.566,2.608,0.566,3.998c0,1.391-0.234,2.71-0.566,3.998
		h36.342c0.102-1.327,0.203-2.654,0.203-3.998C271.954,270.612,271.853,269.292,271.751,267.971z"/>
</g>
<g>
	<path style="fill:#116FFF;" d="M219.991,471.878c-110.227-0.016-199.905-89.701-199.909-199.924
		c0.004-110.23,89.682-199.908,199.905-199.908c45.026,0,87.522,14.603,122.881,42.234c1.741,1.359,2.054,3.873,0.695,5.611
		c-1.366,1.737-3.873,2.05-5.614,0.69c-33.945-26.522-74.736-40.54-117.962-40.54c-105.815,0-191.904,86.094-191.908,191.912
		c0.004,105.812,86.097,191.912,191.912,191.928c105.822-0.016,191.908-86.116,191.9-191.928
		c0.008-43.276-14.056-84.133-40.669-118.152c-1.358-1.737-1.055-4.252,0.688-5.615c1.741-1.358,4.248-1.05,5.614,0.688
		c27.722,35.44,42.371,78.004,42.363,123.08C419.895,382.177,330.225,471.863,219.991,471.878z"/>
	<path style="fill:#116FFF;" d="M219.991,435.88c-43.789,0-84.953-17.055-115.916-48.01
		c-30.962-30.971-48.013-72.131-48.009-115.916c0-43.776,17.051-84.938,48.013-115.903c30.963-30.963,72.12-48.014,115.889-48.014
		c0.008,0,0.012,0,0.016,0c35.257,0,68.839,11.015,97.123,31.853c1.78,1.309,2.155,3.812,0.844,5.588
		c-1.304,1.78-3.818,2.159-5.583,0.847c-26.902-19.814-58.845-30.291-92.384-30.291c-0.004,0-0.012,0-0.016,0
		c-41.637,0-80.779,16.22-110.235,45.671c-29.452,29.455-45.67,68.609-45.67,110.25c-0.004,41.653,16.215,80.807,45.667,110.254
		c29.452,29.456,68.613,45.675,110.262,45.675c85.972-0.016,155.917-69.952,155.925-155.913
		c-0.008-33.629-10.534-65.642-30.439-92.578c-1.319-1.776-0.938-4.279,0.836-5.592c1.78-1.323,4.287-0.933,5.591,0.836
		c20.936,28.323,32.001,61.979,32.009,97.334C383.904,362.335,310.367,435.865,219.991,435.88z"/>
	<path style="fill:#116FFF;" d="M219.991,399.911C149.445,399.895,92.05,342.492,92.05,271.954
		c0-34.168,13.306-66.298,37.471-90.462c24.165-24.165,56.287-37.472,90.451-37.472c0.008,0,0.012,0,0.016,0
		c25.465,0,50.063,7.462,71.14,21.58c1.835,1.23,2.326,3.714,1.101,5.549c-1.233,1.839-3.717,2.323-5.552,1.097
		c-19.757-13.236-42.812-20.229-66.688-20.229c-0.004,0-0.012,0-0.016,0c-32.028,0-62.144,12.475-84.797,35.128
		c-22.654,22.658-35.129,52.776-35.129,84.809c0,66.126,53.808,119.945,119.945,119.961c66.13,0,119.934-53.804,119.934-119.945
		c0-24.047-7.075-47.239-20.468-67.074c-1.233-1.831-0.758-4.314,1.078-5.553c1.835-1.226,4.318-0.749,5.552,1.078
		c14.282,21.158,21.834,45.9,21.834,71.549C347.92,342.516,290.533,399.911,219.991,399.911z"/>
	<path style="fill:#116FFF;" d="M219.983,363.911c-24.559,0-47.65-9.565-65.021-26.94c-17.371-17.367-26.937-40.458-26.933-65.018
		c0-50.707,41.251-91.958,91.958-91.958c15.653,0,31.114,4.011,44.714,11.597c1.929,1.074,2.624,3.51,1.546,5.439
		c-1.077,1.925-3.518,2.611-5.438,1.542c-12.413-6.923-26.531-10.581-40.821-10.581c-46.295,0-83.962,37.666-83.962,83.961
		c-0.004,22.428,8.73,43.512,24.591,59.363c15.859,15.868,36.944,24.599,59.367,24.599c46.295,0,83.958-37.671,83.958-83.962
		c0.008-14.364-3.687-28.541-10.684-41.008c-1.085-1.925-0.397-4.361,1.531-5.443c1.921-1.077,4.357-0.398,5.442,1.53
		c7.669,13.658,11.714,29.194,11.706,44.921C311.937,322.665,270.69,363.911,219.983,363.911z"/>
	<path style="fill:#116FFF;" d="M219.983,327.928c-30.857,0-55.971-25.098-55.979-55.959c0.012-30.872,25.129-55.989,55.986-55.989
		c5.688,0,11.307,0.854,16.703,2.541c2.108,0.656,3.284,2.897,2.624,5.006c-0.652,2.104-2.917,3.28-5.006,2.624
		c-4.623-1.44-9.441-2.175-14.321-2.175c-26.453,0-47.979,21.529-47.99,47.993c0.008,26.441,21.533,47.963,47.982,47.963
		c26.457,0,47.974-21.521,47.974-47.979c0-4.959-0.749-9.854-2.24-14.548c-0.672-2.104,0.491-4.354,2.6-5.021
		c2.132-0.668,4.357,0.499,5.021,2.6c1.733,5.479,2.616,11.19,2.616,16.969C275.953,302.816,250.847,327.928,219.983,327.928z"/>
	<path style="fill:#116FFF;" d="M220.588,291.157c-5.337,0-10.354-2.077-14.123-5.849c-7.789-7.793-7.789-20.49-0.004-28.284
		c1.562-1.562,4.096-1.558,5.658-0.004c1.562,1.562,1.562,4.092,0.004,5.657c-4.677,4.686-4.677,12.292,0,16.978
		c2.257,2.265,5.263,3.506,8.465,3.506c0.004,0,0.008,0,0.012,0c3.206-0.008,6.22-1.257,8.48-3.521c1.562-1.562,4.096-1.562,5.658,0
		s1.562,4.092,0.004,5.653c-3.775,3.779-8.793,5.856-14.134,5.864C220.599,291.157,220.592,291.157,220.588,291.157z"/>
	<path style="fill:#116FFF;" d="M219.979,275.952c-1.023,0-2.046-0.391-2.827-1.171c-1.562-1.562-1.562-4.092,0-5.653L479.297,6.833
		c1.562-1.562,4.093-1.562,5.654,0c1.562,1.562,1.562,4.092,0,5.653L222.805,274.782
		C222.025,275.562,221.002,275.952,219.979,275.952z"/>
	<path style="fill:#116FFF;" d="M83.721,511.845c-5.814,0-9.859-0.25-12.631-3.015c-2.827-2.827-3.038-6.974-3.038-12.979
		c0-11.354,14.532-56.146,16.192-61.214c0.683-2.101,2.928-3.256,5.041-2.554c2.101,0.68,3.245,2.937,2.558,5.037
		c-4.393,13.438-15.794,50.195-15.794,58.73c0,4.396,0.234,6.856,0.691,7.317c0.461,0.453,2.925,0.648,7.301,0.68
		c0,0,0.004,0,0.008,0c15.052,0,46.354-28.003,57.146-38.795c1.562-1.562,4.092-1.562,5.653,0c1.562,1.562,1.562,4.092,0,5.653
		c-4.209,4.217-41.73,41.138-62.792,41.138C83.94,511.798,83.834,511.845,83.721,511.845z"/>
	<path style="fill:#116FFF;" d="M355.916,511.861c-21.037,0-58.583-36.952-62.792-41.169c-1.562-1.562-1.562-4.092,0-5.653
		c1.562-1.562,4.093-1.562,5.654,0c10.8,10.8,42.113,38.826,57.138,38.826c8.005,0,8.005,0,8.005-7.997
		c-0.008-8.543-11.417-45.308-15.813-58.746c-0.688-2.101,0.452-4.35,2.554-5.037c2.108-0.687,4.357,0.461,5.044,2.554
		c1.655,5.068,16.204,49.86,16.212,61.229C371.909,509.174,369.215,511.861,355.916,511.861z"/>
	<path style="fill:#116FFF;" d="M470.801,24.973c-1.671,0-3.232-1.058-3.795-2.733l-5.653-16.977
		c-0.695-2.097,0.438-4.361,2.529-5.06c2.117-0.688,4.365,0.434,5.061,2.53l5.654,16.977c0.694,2.097-0.438,4.361-2.53,5.06
		C471.645,24.907,471.223,24.973,470.801,24.973z"/>
	<path style="fill:#116FFF;" d="M425.572,47.589c-1.022,0-2.045-0.391-2.826-1.172c-1.562-1.562-1.562-4.092,0-5.653l39.575-39.592
		c1.562-1.562,4.092-1.562,5.654,0c1.562,1.562,1.562,4.092,0,5.654l-39.576,39.591C427.618,47.199,426.595,47.589,425.572,47.589z"
		/>
	<path style="fill:#116FFF;" d="M425.572,70.202c-2.209,0-3.998-1.788-3.998-3.998V43.59c0-2.21,1.789-3.998,3.998-3.998
		c2.211,0,3.999,1.788,3.999,3.998v22.615C429.571,68.414,427.783,70.202,425.572,70.202z"/>
	<path style="fill:#116FFF;" d="M487.778,30.619c-0.413,0-0.843-0.066-1.257-0.203l-16.977-5.646
		c-2.101-0.698-3.232-2.963-2.538-5.056c0.695-2.101,2.96-3.218,5.061-2.534l16.977,5.646c2.093,0.699,3.225,2.964,2.53,5.057
		C491.019,29.561,489.456,30.619,487.778,30.619z"/>
	<path style="fill:#116FFF;" d="M448.187,70.202c-1.023,0-2.046-0.391-2.827-1.171c-1.562-1.562-1.562-4.093,0-5.654l39.592-39.583
		c1.562-1.562,4.092-1.562,5.653,0c1.562,1.562,1.562,4.092,0,5.653l-39.592,39.584C450.233,69.813,449.21,70.202,448.187,70.202z"
		/>
	<path style="fill:#116FFF;" d="M448.187,70.202h-22.615c-2.209,0-3.998-1.788-3.998-3.998c0-2.21,1.789-3.998,3.998-3.998h22.615
		c2.21,0,3.998,1.788,3.998,3.998C452.185,68.414,450.397,70.202,448.187,70.202z"/>
</g>
<g>
</g>
<g>
</g>
<g>
</g>
<g>
</g>
<g>
</g>
<g>
</g>
<g>
</g>
<g>
</g>
<g>
</g>
<g>
</g>
<g>
</g>
<g>
</g>
<g>
</g>
<g>
</g>
<g>
</g>
</svg>
