<?xml version="1.0" encoding="iso-8859-1"?>
<!-- Generator: Adobe Illustrator 19.0.0, SVG Export Plug-In . SVG Version: 6.00 Build 0)  -->
<svg version="1.1" id="Capa_1" xmlns="http://www.w3.org/2000/svg" xmlns:xlink="http://www.w3.org/1999/xlink" x="0px" y="0px"
	 viewBox="0 0 511.73 511.73" style="enable-background:new 0 0 511.73 511.73;" xml:space="preserve">
<path style="fill:#5C9EFF;" d="M411.595,83.781c-39.738,0-71.951,32.212-71.951,71.947v107.926h143.902V155.728
	C483.547,115.993,451.334,83.781,411.595,83.781z"/>
<path style="fill:#94C1FF;" d="M487.457,247.907c-3.115-1.194-15.184-10.625-19.9-12.233h-55.962h-0.086h-55.963
	c-4.715,1.608-16.785,11.039-19.9,12.233c-13.514,5.036-20.229,10.071-20.229,23.586c0,13.429,0,20.143,0,20.143h192.268
	c0,0,0-6.714,0-20.143C507.685,257.978,500.972,252.943,487.457,247.907z"/>
<path style="fill:#D7E9FF;" d="M351.636,247.907c3.113-1.194,15.184-10.625,19.9-12.233h-15.99
	c-4.715,1.608-16.785,11.039-19.9,12.233c-13.514,5.036-20.229,10.071-20.229,23.586c0,13.429,0,20.143,0,20.143h15.99
	c0,0,0-6.714,0-20.143C331.408,257.978,338.121,252.943,351.636,247.907z"/>
<path style="fill:#5C9EFF;" d="M487.457,247.907c-3.115-1.194-15.184-10.625-19.9-12.233h-15.988
	c4.715,1.608,16.785,11.039,19.9,12.233c13.514,5.036,20.229,10.071,20.229,23.586c0,13.429,0,20.143,0,20.143h15.988
	c0,0,0-6.714,0-20.143C507.685,257.978,500.972,252.943,487.457,247.907z"/>
<rect x="379.695" y="218.984" style="fill:#D7E9FF;" width="63.957" height="28.684"/>
<g>
	<polygon style="fill:#FFFFFF;" points="467.556,235.674 443.449,218.982 419.746,291.635 451.568,259.657 443.574,251.663 	"/>
	<polygon style="fill:#FFFFFF;" points="355.586,235.674 379.695,218.982 403.398,291.635 371.576,259.657 379.57,251.663 	"/>
</g>
<g>
	<polygon style="fill:#94C1FF;" points="411.595,251.663 411.595,291.635 419.746,291.635 435.578,243.746 	"/>
	<polygon style="fill:#94C1FF;" points="403.398,291.635 411.549,291.635 411.549,251.663 387.564,243.746 	"/>
</g>
<path style="fill:#D7E9FF;" d="M447.648,125.178c-0.5-0.223-21.977-0.789-36.053-1.14c-14.076,0.351-35.555,0.917-36.055,1.14
	c-0.748,0.332-19.822,33.43-19.822,33.43v8.471c0,35.694,34.602,68.5,55.877,68.586c21.273-0.086,55.875-32.892,55.875-68.586
	v-8.471C467.47,158.609,448.398,125.51,447.648,125.178z"/>
<path style="fill:#94C1FF;" d="M447.648,125.178c-0.5-0.223-21.977-0.789-36.053-1.14c-2.482,0.062-5.209,0.133-7.996,0.203
	c13.016,0.339,27.646,0.753,28.061,0.937c0.748,0.332,19.822,33.43,19.822,33.43v8.471c0,31.494-26.928,60.705-47.883,67.208
	c2.795,0.87,5.49,1.366,7.996,1.378c21.273-0.086,55.875-32.892,55.875-68.586v-8.471
	C467.47,158.609,448.398,125.51,447.648,125.178z"/>
<path style="fill:#FFFFFF;" d="M371.709,167.08v-8.471c0,0,19.072-33.098,19.822-33.43c0.414-0.184,15.043-0.598,28.059-0.937
	c-2.787-0.07-5.512-0.14-7.994-0.203c-14.076,0.351-35.555,0.917-36.055,1.14c-0.748,0.332-19.822,33.43-19.822,33.43v8.471
	c0,35.694,34.602,68.5,55.877,68.586c2.506-0.012,5.199-0.508,7.994-1.378C398.635,227.784,371.709,198.574,371.709,167.08z"/>
<path style="fill:#94C1FF;" d="M340.674,167.407c21.775-6.097,71.732-24.952,86.91-33.665c23.188-13.175,37.217-25.592,37.584-25.92
	c-13.17-14.725-32.26-24.042-53.572-24.042c-39.738,0-71.951,32.212-71.951,71.947C339.644,159.718,340.051,163.597,340.674,167.407
	z"/>
<path style="fill:#D7E9FF;" d="M347.638,155.728c0-38.334,30.012-69.578,67.805-71.736c-1.287-0.07-2.545-0.211-3.848-0.211
	c-39.738,0-71.951,32.212-71.951,71.947c0,3.989,0.406,7.869,1.029,11.679c2.266-0.632,4.889-1.433,7.691-2.319
	C347.943,162.02,347.638,158.917,347.638,155.728z"/>
<path style="fill:#94C1FF;" d="M483.547,155.728c0-19.292-7.637-36.776-20.01-49.686l-35.953,27.778
	c0,0,17.855,19.736,55.518,29.776C483.383,161.006,483.547,158.39,483.547,155.728z"/>
<path style="fill:#5C9EFF;" d="M465.121,107.862c0.008-0.004,0.047-0.035,0.047-0.035c-0.203-0.234-0.438-0.434-0.648-0.66
	c-0.336-0.367-0.641-0.765-0.982-1.125c-0.031-0.035-0.117-0.008-0.164-0.031c-13.086-13.639-31.377-22.23-51.777-22.23
	c-1.375,0-2.717,0.129-4.076,0.207c18.809,1.026,35.625,9.271,47.857,22.023c0.047,0.023,0.133-0.004,0.164,0.031
	c0.344,0.359,0.648,0.758,0.984,1.125c0.211,0.226,0.445,0.425,0.648,0.656c0,0-0.039,0.035-0.047,0.039
	c11.406,12.714,18.424,29.441,18.424,47.866c0,1.869-0.164,3.696-0.312,5.527c2.531,0.819,5.131,1.612,7.863,2.342
	c0.281-2.592,0.445-5.207,0.445-7.869C483.547,137.303,476.527,120.576,465.121,107.862z"/>
<path style="fill:#94C1FF;" d="M419.636,395.728c0,21.821,0,39.809,0,39.809H91.86c0,0,0-17.987,0-39.809
	c0-21.828,10.945-30.065,32.774-38.216c11.109-4.153,39.176-15.028,55.165-23.023l10.149-8.158l29.824,37.256l31.978-15.989h7.996
	l31.977,15.989l29.816-37.256l10.158,8.158c16.066,7.995,44.125,18.87,55.234,23.023C408.761,365.663,419.636,373.9,419.636,395.728
	z"/>
<path style="fill:#D7E9FF;" d="M140.623,357.512c11.109-4.153,39.176-15.028,55.165-23.023l0.422-0.336l-6.262-7.822l-10.149,8.158
	c-15.989,7.995-44.056,18.87-55.165,23.023c-21.829,8.15-32.774,16.388-32.774,38.216c0,21.821,0,39.809,0,39.809h15.989
	c0,0,0-17.987,0-39.809C107.848,373.9,118.794,365.663,140.623,357.512z"/>
<path style="fill:#5C9EFF;" d="M370.826,357.512c-11.109-4.153-39.176-15.028-55.166-23.023l-0.422-0.336l6.262-7.822l10.15,8.158
	c15.988,7.995,44.055,18.87,55.164,23.023c21.83,8.15,32.775,16.388,32.775,38.216c0,21.821,0,39.809,0,39.809h-15.99
	c0,0,0-17.987,0-39.809C403.599,373.9,392.654,365.663,370.826,357.512z"/>
<path style="fill:#D7E9FF;" d="M196.046,291.675H4.177v-7.995c0,0,0-5.355,0-18.627c0-13.354,6.714-18.391,19.986-23.348
	c6.542-2.479,18.3-6.875,27.98-11.512l9.354-9.275l22.781,22.785l15.989-7.916l15.989,7.916L138.959,221l9.119,9.111
	c9.744,4.719,21.423,9.115,27.981,11.594c13.351,4.957,19.986,9.993,19.986,23.348c0,13.271,0,18.627,0,18.627v7.995H196.046z"/>
<path style="fill:#FFFFFF;" d="M20.166,265.052c0-13.354,6.714-18.391,19.986-23.348c6.542-2.479,18.3-6.875,27.98-11.512
	l1.327-1.312l-7.963-7.964l-9.354,9.275c-9.681,4.637-21.438,9.033-27.98,11.512c-13.272,4.957-19.986,9.993-19.986,23.348
	c0,13.271,0,18.627,0,18.627v7.995h15.989v-7.995C20.166,283.679,20.166,278.324,20.166,265.052z"/>
<path style="fill:#94C1FF;" d="M180.213,265.052c0-13.354-6.714-18.391-19.986-23.348c-6.542-2.479-18.3-6.875-27.981-11.512
	l-1.327-1.312l7.963-7.964l9.353,9.275c9.681,4.637,21.439,9.033,27.981,11.512c13.272,4.957,19.986,9.993,19.986,23.348
	c0,13.271,0,18.627,0,18.627v7.995h-15.989v-7.995C180.213,283.679,180.213,278.324,180.213,265.052z"/>
<g>
	<polygon style="fill:#5C9EFF;" points="108.434,291.675 92.445,291.675 96.442,248.266 104.437,248.266 	"/>
	<rect x="93.045" y="237.394" style="fill:#5C9EFF;" width="14.24" height="10.867"/>
</g>
<g>
	<polygon style="fill:#FFFFFF;" points="84.45,244.301 60.467,220.317 68.461,212.322 100.564,229.404 100.564,236.306 	"/>
	<polygon style="fill:#FFFFFF;" points="116.428,244.301 140.412,220.317 132.418,212.322 100.315,229.404 100.315,236.306 	"/>
</g>
<path style="fill:#5C9EFF;" d="M52.222,84.409c0,0,111.924-39.973,104.172,63.957l-16.872-23.984
	c-34.859-2.077-73.872,13.51-95.216,23.664c-9.993,4.798-16.067,8.314-16.067,8.314c0-49.966,32.618-63.956,32.618-63.956
	L52.222,84.409z"/>
<path style="fill:#2287FF;" d="M92.242,76.946c27.293,0.941,56.094,13.19,56.493,60.529l7.659,10.892
	C160.992,86.744,123.517,75.712,92.242,76.946z"/>
<path style="fill:#94C1FF;" d="M69.46,94.278l-9.243-9.869c0,0,18.55-6.62,40.02-7.463c-24.64-0.851-48.015,7.463-48.015,7.463
	l8.635,7.995c0,0-32.618,13.99-32.618,63.956c0,0,3.006-1.733,8.174-4.392C38.294,105.653,69.46,94.278,69.46,94.278z"/>
<path style="fill:#D7E9FF;" d="M156.394,148.366v8.072c0,37.975-34.617,72.993-55.962,72.993c-21.267,0-55.962-35.019-55.962-72.993
	v-8.072l-0.164-0.32c21.345-10.153,60.357-25.74,95.216-23.664L156.394,148.366z"/>
<path style="fill:#94C1FF;" d="M139.522,124.382c-5.2-0.308-10.485-0.129-15.802,0.273l16.684,23.711v8.072
	c0,33.513-26.951,64.687-47.96,71.557c2.795,0.914,5.489,1.437,7.987,1.437c21.345,0,55.962-35.019,55.962-72.993v-8.072
	L139.522,124.382z"/>
<path style="fill:#FFFFFF;" d="M60.459,156.438v-8.072l-0.164-0.32c18.159-8.639,49.115-21.114,79.414-23.391l-0.187-0.273
	c-34.859-2.077-73.872,13.51-95.216,23.664l0.164,0.32v8.072c0,37.975,34.695,72.993,55.962,72.993c2.506,0,5.207-0.523,8.002-1.437
	C87.472,221.125,60.459,189.951,60.459,156.438z"/>
<path style="fill:#94C1FF;" d="M307.713,131.744c0,0,57.797-8.232,43.971,79.946l-27.982-39.973c0,0-33.102,15.989-68.117,15.989
	s-67.79-15.989-67.79-15.989l-27.981,39.973c-2.881-30.936,2.553-54.279,13.03-71.631c39.567-66.115,150.858-48.288,150.858-48.288
	C297.554,102.565,307.713,131.744,307.713,131.744z"/>
<path style="fill:#5C9EFF;" d="M307.713,131.744c0,0,32.557-6.862,29.979,59.959l13.992,19.986
	C365.51,123.511,307.713,131.744,307.713,131.744z"/>
<g>
	<path style="fill:#D7E9FF;" d="M188.832,140.059c23.898-39.934,73.943-49.228,109.839-50.34
		c-35.188-1.093-98.097,4.005-125.829,50.34c-10.477,17.352-15.911,40.695-13.03,71.631l15.349-21.922
		C175.974,169.394,180.986,153.046,188.832,140.059z"/>
	<path style="fill:#D7E9FF;" d="M351.683,211.69v7.838c0,62.513-59.406,120.075-95.936,120.075
		c-23.906,0-57.804-24.78-78.189-59.476c-10.711-18.151-17.746-39.095-17.746-60.6v-7.838l27.981-39.973
		c0,0,32.774,15.989,67.79,15.989s68.117-15.989,68.117-15.989L351.683,211.69z"/>
</g>
<path style="fill:#FFFFFF;" d="M193.548,280.128c-10.712-18.151-17.746-39.095-17.746-60.6v-7.838l24.39-34.847
	c-7.706-2.842-12.397-5.125-12.397-5.125l-27.981,39.973v7.838c0,21.505,7.035,42.448,17.746,60.6
	c20.385,34.695,54.283,59.476,78.189,59.476c2.553,0,5.23-0.344,7.979-0.891C240.711,334.13,211.754,311.106,193.548,280.128z"/>
<path style="fill:#94C1FF;" d="M316.894,280.128c10.711-18.151,17.746-39.095,17.746-60.6v-7.838l-24.391-34.847
	c7.705-2.842,12.398-5.125,12.398-5.125l27.98,39.973v7.838c0,21.505-7.035,42.448-17.746,60.6
	c-20.385,34.695-54.283,59.476-78.189,59.476c-2.553,0-5.23-0.344-7.979-0.891C269.73,334.13,298.687,311.106,316.894,280.128z"/>
<g>
	<polygon style="fill:#FFFFFF;" points="219.772,363.587 187.794,323.613 187.794,315.619 206.563,315.619 228.056,331.178 
		255.748,339.603 255.779,347.597 	"/>
	<polygon style="fill:#FFFFFF;" points="291.754,363.587 323.732,323.613 323.732,315.619 304.965,315.619 283.47,331.178 
		255.779,339.603 255.748,347.597 	"/>
</g>
<g>
	<path style="fill:#116FFF;" d="M256.021,375.617c-2.209,0-4.036-1.787-4.036-3.997c0-2.209,1.749-3.997,3.95-3.997h0.086
		c2.202,0,3.999,1.788,3.999,3.997C260.019,373.83,258.222,375.617,256.021,375.617z"/>
	<path style="fill:#116FFF;" d="M256.021,399.601c-2.209,0-4.036-1.788-4.036-3.998c0-2.209,1.749-3.997,3.95-3.997h0.086
		c2.202,0,3.999,1.788,3.999,3.997C260.019,397.813,258.222,399.601,256.021,399.601z"/>
	<path style="fill:#116FFF;" d="M256.021,423.585c-2.209,0-4.036-1.788-4.036-3.997c0-2.21,1.749-3.998,3.95-3.998h0.086
		c2.202,0,3.999,1.788,3.999,3.998C260.019,421.797,258.222,423.585,256.021,423.585z"/>
	<path style="fill:#116FFF;" d="M411.791,271.696c-2.211,0-4.037-1.788-4.037-3.997c0-2.21,1.748-3.998,3.951-3.998h0.086
		c2.201,0,3.996,1.788,3.996,3.998C415.787,269.908,413.992,271.696,411.791,271.696z"/>
	<path style="fill:#116FFF;" d="M419.636,439.535H91.86c-2.21,0-3.998-1.788-3.998-3.998v-39.809
		c0-24.171,12.429-33.391,35.375-41.963c13.35-4.989,39.91-15.42,54.775-22.852c1.975-0.992,4.372-0.188,5.364,1.787
		c0.983,1.976,0.188,4.372-1.788,5.363c-18.675,9.338-51.832,21.798-55.556,23.195c-20.447,7.628-30.175,14.74-30.175,34.469v35.812
		h319.782v-35.812c0-19.752-9.703-26.856-30.104-34.469c-13.469-5.035-40.332-15.583-55.619-23.195
		c-1.975-0.983-2.779-3.38-1.795-5.355c0.975-1.982,3.389-2.795,5.355-1.795c14.998,7.455,41.533,17.878,54.854,22.852
		c22.898,8.549,35.303,17.769,35.303,41.963v39.809C423.633,437.747,421.845,439.535,419.636,439.535z"/>
	<path style="fill:#116FFF;" d="M255.748,343.6c-25.959,0-61.052-26.42-81.632-61.45c-11.968-20.279-18.3-41.937-18.3-62.622
		c0-2.209,1.788-3.997,3.997-3.997c2.21,0,3.998,1.788,3.998,3.997c0,19.257,5.941,39.509,17.191,58.569
		c18.948,32.252,51.777,57.508,74.746,57.508c34.586,0,91.938-56.219,91.938-116.077c0-2.209,1.787-3.997,3.998-3.997
		c2.209,0,3.996,1.788,3.996,3.997C355.679,285.608,293.394,343.6,255.748,343.6z"/>
	<path style="fill:#116FFF;" d="M159.813,215.687c-0.343,0-0.687-0.043-1.022-0.133c-1.624-0.43-2.803-1.823-2.959-3.494
		c-2.756-29.644,1.812-54.564,13.592-74.066c25.92-43.314,80.196-52.41,121.168-52.41c19.541,0,33.172,2.147,33.742,2.241
		c1.764,0.281,3.131,1.706,3.342,3.482c0.203,1.776-0.797,3.478-2.451,4.162c-18.051,7.448-16.107,25.096-14.521,32.083
		c7.486-0.207,22.672,1.44,33.984,14.674c12.297,14.381,15.98,37.958,10.945,70.085c-0.258,1.608-1.459,2.904-3.045,3.275
		c-1.623,0.371-3.24-0.266-4.176-1.604l-26.084-37.252c-9.166,3.997-37.061,14.974-66.744,14.974
		c-29.652,0-57.297-10.954-66.423-14.966l-26.076,37.244C162.327,215.066,161.094,215.687,159.813,215.687z M323.701,167.719
		c1.266,0,2.506,0.605,3.271,1.706l22.078,31.537c2.516-24.503-0.982-42.486-10.438-53.538
		c-8.846-10.344-20.783-11.886-27.113-11.886c-1.906,0-3.107,0.148-3.232,0.164c-1.914,0.285-3.701-0.847-4.334-2.643
		c-3.232-9.306-4.668-27.154,7.932-38.595c-5.559-0.464-12.889-0.886-21.273-0.886c-31.846,0-89.049,6.308-114.321,48.533
		c-9.377,15.532-13.788,34.969-13.163,57.906l21.415-30.593c1.124-1.624,3.248-2.159,5.02-1.304
		c0.32,0.156,32.408,15.587,66.041,15.587c33.711,0,66.057-15.435,66.377-15.591C322.523,167.848,323.117,167.719,323.701,167.719z"
		/>
	<path style="fill:#116FFF;" d="M411.556,239.671c-13.164,0-30.457-10.902-43.049-27.126c-1.352-1.745-1.031-4.255,0.709-5.609
		c1.742-1.354,4.256-1.042,5.613,0.707c10.971,14.15,26.076,24.035,36.727,24.035c19.549,0,51.965-31.288,51.965-64.593
		c0-2.21,1.787-3.998,3.996-3.998s3.998,1.788,3.998,3.998C471.515,205.745,434.142,239.671,411.556,239.671z"/>
	<path style="fill:#116FFF;" d="M507.732,295.633H347.685c-2.209,0-3.998-1.788-3.998-3.997c0-2.21,1.789-3.997,3.998-3.997h156.051
		v-16.146c0-10.419-3.787-14.686-17.629-19.838c-2.125-0.82-4.764-1.694-7.707-2.671l-4.332-1.447
		c-2.084-0.711-3.209-2.982-2.498-5.071c0.719-2.096,2.982-3.197,5.074-2.502l4.279,1.433c3.074,1.022,5.83,1.939,8.018,2.779
		c14.42,5.375,22.789,11.574,22.789,27.317v20.143C511.73,293.844,509.941,295.633,507.732,295.633z"/>
	<path style="fill:#116FFF;" d="M99.932,295.633H3.997c-2.209,0-3.997-1.788-3.997-3.997v-26.622
		c0-15.525,8.275-21.689,22.57-27.084c6.23-2.279,18.058-6.769,27.669-11.375c1.967-0.944,4.38-0.121,5.332,1.874
		c0.952,1.991,0.109,4.38-1.882,5.332c-9.907,4.751-22,9.346-28.332,11.664c-13.624,5.142-17.363,9.356-17.363,19.589v22.625h91.938
		c2.209,0,3.997,1.787,3.997,3.997C103.929,293.844,102.141,295.633,99.932,295.633z"/>
	<path style="fill:#116FFF;" d="M163.81,295.633H99.932c-2.209,0-3.997-1.788-3.997-3.997c0-2.21,1.788-3.997,3.997-3.997h63.878
		c2.209,0,3.998,1.787,3.998,3.997C167.808,293.844,166.02,295.633,163.81,295.633z"/>
	<path style="fill:#116FFF;" d="M100.166,232.797c-22.586,0-59.959-35.944-59.959-76.909c0-2.209,1.788-3.998,3.997-3.998
		c2.209,0,3.997,1.788,3.997,3.998c0,35.535,32.416,68.914,51.965,68.914c10.532,0,25.514-10.407,36.436-25.307
		c1.312-1.776,3.802-2.166,5.59-0.862c1.78,1.304,2.163,3.806,0.859,5.586C130.521,221.312,113.29,232.797,100.166,232.797z"/>
	<path style="fill:#116FFF;" d="M84.099,247.666c-1.038,0-2.061-0.402-2.826-1.172L57.29,222.511c-1.562-1.562-1.562-4.091,0-5.652
		s4.091-1.562,5.652,0l21.961,21.958l13.272-6.574c1.515-0.823,3.412-0.651,4.708,0.578c1.601,1.522,1.702,4.013,0.18,5.609
		c-0.32,0.34-0.781,0.699-1.202,0.905l-15.997,7.917C85.301,247.529,84.7,247.666,84.099,247.666z"/>
	<path style="fill:#116FFF;" d="M116.077,247.666c-0.602,0-1.21-0.137-1.772-0.414l-15.989-7.913l3.475-7.206l13.49,6.68
		l21.954-21.954c1.562-1.562,4.091-1.562,5.652,0s1.562,4.091,0,5.652l-23.983,23.983
		C118.138,247.263,117.115,247.666,116.077,247.666z"/>
	<path style="fill:#116FFF;" d="M27.981,159.725c-0.687,0-1.374-0.18-1.999-0.535c-1.233-0.71-1.999-2.033-1.999-3.462
		c0-40.234,20.119-58.328,29.886-64.737l-4.622-4.282c-1.023-0.949-1.483-2.366-1.203-3.732c0.281-1.37,1.257-2.494,2.577-2.962
		c2.17-0.777,53.588-18.737,85.606,2.542c14.779,9.829,22.898,26.302,24.132,48.97c0.125,2.206-1.569,4.091-3.771,4.208
		c-2.42,0.355-4.083-1.569-4.208-3.771c-1.093-20.014-8.01-34.395-20.58-42.748c-22.508-14.962-57.617-7.612-72.021-3.646
		l3.537,3.271c0.992,0.918,1.452,2.276,1.226,3.611c-0.234,1.335-1.125,2.459-2.366,2.994c-1.155,0.507-27.309,12.464-29.979,53.424
		c16.879-8.865,64.729-31.635,107.302-29.109c1.39,0.078,2.639,0.878,3.294,2.111l8.533,15.946c1.062,1.937,0.352,4.364-1.585,5.426
		c-1.904,1.058-4.364,0.359-5.426-1.584l-7.511-14.022c-48.662-1.772-106.232,31.209-106.817,31.549
		C29.37,159.546,28.676,159.725,27.981,159.725z"/>
	<path style="fill:#116FFF;" d="M99.932,255.66c-1.022,0-2.045-0.391-2.826-1.171l-7.995-7.995c-1.561-1.561-1.561-4.091,0-5.652
		c1.562-1.562,4.091-1.562,5.653,0l7.994,7.995c1.562,1.562,1.562,4.091,0,5.652C101.977,255.269,100.954,255.66,99.932,255.66z"/>
	<path style="fill:#116FFF;" d="M99.932,255.66c-1.022,0-2.045-0.391-2.826-1.171c-1.562-1.562-1.562-4.091,0-5.652l7.995-7.995
		c1.561-1.562,4.091-1.562,5.652,0s1.562,4.092,0,5.652l-7.995,7.995C101.977,255.269,100.954,255.66,99.932,255.66z"/>
	<path style="fill:#116FFF;" d="M91.945,287.638c-0.148,0-0.296-0.008-0.453-0.023c-2.194-0.242-3.771-2.218-3.529-4.419
		l3.997-35.972c0.242-2.198,2.131-3.799,4.419-3.533c2.194,0.246,3.771,2.222,3.529,4.415l-3.997,35.979
		C95.685,286.124,93.951,287.638,91.945,287.638z"/>
	<path style="fill:#116FFF;" d="M107.919,287.638c-2.006,0-3.74-1.515-3.966-3.553l-3.997-35.979
		c-0.242-2.193,1.335-4.169,3.529-4.415c2.241-0.258,4.177,1.335,4.419,3.533l3.998,35.972c0.242,2.201-1.335,4.177-3.529,4.419
		C108.215,287.631,108.067,287.638,107.919,287.638z"/>
	<path style="fill:#116FFF;" d="M483.594,234.557c-2.211,0-3.998-1.788-3.998-3.998v-74.832c0-2.21,1.787-3.998,3.998-3.998
		c2.209,0,3.996,1.788,3.996,3.998v74.832C487.59,232.769,485.803,234.557,483.594,234.557z"/>
	<path style="fill:#116FFF;" d="M347.201,127.747c-0.602,0-1.209-0.133-1.779-0.417c-1.977-0.98-2.779-3.38-1.805-5.356
		c12.93-26.025,38.99-42.194,68.025-42.194c2.209,0,3.996,1.788,3.996,3.998c0,2.209-1.787,3.997-3.996,3.997
		c-25.975,0-49.295,14.467-60.857,37.752C350.082,126.935,348.67,127.747,347.201,127.747z"/>
	<path style="fill:#116FFF;" d="M483.594,159.725c-2.211,0-3.998-1.788-3.998-3.997c0-16.813-6.137-32.896-17.285-45.294
		c-12.914-14.404-31.385-22.66-50.668-22.66c-2.211,0-3.998-1.788-3.998-3.997c0-2.21,1.787-3.998,3.998-3.998
		c21.555,0,42.189,9.224,56.617,25.311c12.469,13.865,19.33,31.85,19.33,50.638C487.59,157.937,485.803,159.725,483.594,159.725z"/>
	<path style="fill:#116FFF;" d="M371.67,161.486c-1.75,0-3.357-1.155-3.85-2.919c-0.594-2.128,0.648-4.333,2.771-4.927
		c18.535-5.176,37.053-13.038,55.049-23.363c22.82-12.964,36.842-25.377,36.982-25.499c1.646-1.472,4.176-1.331,5.645,0.324
		c1.467,1.647,1.326,4.173-0.32,5.641c-0.594,0.527-14.74,13.069-38.342,26.474c-18.557,10.649-37.691,18.769-56.859,24.121
		C372.386,161.439,372.019,161.486,371.67,161.486z"/>
	<path style="fill:#116FFF;" d="M483.594,167.719c-0.336,0-0.68-0.043-1.016-0.133c-38.686-10.176-57.148-30.233-57.914-31.08
		c-1.475-1.636-1.35-4.157,0.281-5.641c1.631-1.464,4.162-1.358,5.645,0.273c0.172,0.191,17.801,19.186,54.018,28.719
		c2.139,0.562,3.412,2.748,2.85,4.883C486.988,166.533,485.365,167.719,483.594,167.719z"/>
	<path style="fill:#116FFF;" d="M467.517,171.081c-2.209,0-3.996-1.788-3.996-3.997v-8.475c0-2.209,1.787-3.997,3.996-3.997
		s3.998,1.788,3.998,3.997v8.475C471.515,169.293,469.726,171.081,467.517,171.081z"/>
	<path style="fill:#116FFF;" d="M427.787,287.638c-1.016,0-2.037-0.391-2.818-1.164c-1.561-1.553-1.576-4.083-0.016-5.652
		l21.018-21.157l-5.178-5.176c-0.85-0.848-1.271-2.03-1.154-3.221c0.125-1.19,0.766-2.269,1.764-2.932l19.113-12.745l-11.195-7.834
		c-1.805-1.265-2.25-3.759-0.977-5.567c1.264-1.815,3.756-2.244,5.566-0.983l15.988,11.191c1.078,0.758,1.719,1.999,1.703,3.322
		c-0.016,1.319-0.68,2.545-1.781,3.279l-19.924,13.284l4.545,4.548c1.561,1.558,1.561,4.079,0.008,5.645l-23.828,23.983
		C429.84,287.248,428.818,287.638,427.787,287.638z"/>
	<path style="fill:#116FFF;" d="M395.488,287.638c-1.029,0-2.053-0.391-2.834-1.18l-23.818-23.983
		c-1.555-1.565-1.555-4.087,0.008-5.645l4.527-4.528l-3.904-2.576c-1.842-1.218-2.35-3.696-1.131-5.539
		c1.209-1.851,3.691-2.346,5.535-1.136l7.994,5.273c1,0.663,1.654,1.741,1.771,2.936c0.125,1.194-0.295,2.381-1.146,3.229
		l-5.176,5.176l21.008,21.157c1.562,1.569,1.547,4.1-0.016,5.652C397.527,287.248,396.504,287.638,395.488,287.638z"/>
	<path style="fill:#116FFF;" d="M411.642,255.66c-17.441,0-26.436-8.791-26.811-9.166c-1.561-1.561-1.561-4.091,0-5.652
		c1.561-1.546,4.084-1.558,5.629-0.023l0,0c0.289,0.281,7.23,6.848,21.182,6.848c13.967,0,20.906-6.5,21.195-6.777
		c1.586-1.515,4.107-1.479,5.637,0.082c1.531,1.573,1.523,4.075-0.039,5.621C438.06,246.963,429.076,255.66,411.642,255.66z"/>
	<path style="fill:#116FFF;" d="M187.794,327.611c-2.21,0-3.998-1.788-3.998-3.998v-7.994c0-2.209,1.788-3.997,3.998-3.997
		c2.209,0,3.997,1.788,3.997,3.997v7.994C191.791,325.823,190.003,327.611,187.794,327.611z"/>
	<path style="fill:#116FFF;" d="M219.772,367.584c-1.171,0-2.334-0.516-3.123-1.499l-31.986-39.988
		c-1.374-1.726-1.085-4.239,0.648-5.613c1.725-1.374,4.247-1.093,5.613,0.647l31.97,39.957c1.374,1.726,1.101,4.24-0.624,5.621
		C221.536,367.295,220.655,367.584,219.772,367.584z"/>
	<path style="fill:#116FFF;" d="M219.772,367.584c-1.46,0-2.873-0.812-3.576-2.209c-0.983-1.976-0.188-4.373,1.788-5.364
		l31.978-15.989c1.975-0.983,4.372-0.188,5.364,1.788c0.983,1.976,0.187,4.372-1.788,5.363l-31.979,15.989
		C220.983,367.451,220.373,367.584,219.772,367.584z"/>
	<path style="fill:#116FFF;" d="M323.701,327.611c-2.209,0-3.996-1.788-3.996-3.998v-7.994c0-2.209,1.787-3.997,3.996-3.997
		c2.211,0,3.998,1.788,3.998,3.997v7.994C327.699,325.823,325.912,327.611,323.701,327.611z"/>
	<path style="fill:#116FFF;" d="M291.722,367.584c-0.881,0-1.756-0.289-2.498-0.875c-1.725-1.381-1.998-3.896-0.623-5.621
		l31.969-39.965c1.383-1.732,3.904-2.006,5.621-0.64c1.727,1.382,2.016,3.896,0.641,5.621l-31.986,39.98
		C294.058,367.068,292.894,367.584,291.722,367.584z"/>
	<path style="fill:#116FFF;" d="M291.722,367.584c-0.6,0-1.209-0.133-1.787-0.422l-31.979-15.989
		c-1.975-0.991-2.771-3.388-1.788-5.363c0.993-1.968,3.389-2.764,5.364-1.788l31.979,15.989c1.975,0.991,2.771,3.389,1.787,5.364
		C294.595,366.771,293.183,367.584,291.722,367.584z"/>
</g>
<g>
</g>
<g>
</g>
<g>
</g>
<g>
</g>
<g>
</g>
<g>
</g>
<g>
</g>
<g>
</g>
<g>
</g>
<g>
</g>
<g>
</g>
<g>
</g>
<g>
</g>
<g>
</g>
<g>
</g>
</svg>
